<?xml version="1.0" encoding="utf-8"?>
<!-- Generator: Adobe Illustrator 23.0.2, SVG Export Plug-In . SVG Version: 6.00 Build 0)  -->
<svg version="1.1" id="Layer_1" xmlns="http://www.w3.org/2000/svg" xmlns:xlink="http://www.w3.org/1999/xlink" x="0px" y="0px"
	 viewBox="0 0 250 108.5" style="enable-background:new 0 0 250 108.5;" xml:space="preserve">
<style type="text/css">
	.st0{fill:#0033A1;}
	.st1{fill:url(#SVGID_1_);}
	.st2{fill:url(#SVGID_2_);}
	.st3{fill:url(#SVGID_3_);}
	.st4{fill:url(#SVGID_4_);}
	.st5{fill:#F3E85C;}
	.st6{fill:url(#SVGID_5_);}
	.st7{fill:url(#SVGID_6_);}
	.st8{fill:url(#SVGID_7_);}
	.st9{fill:url(#SVGID_8_);}
	.st10{fill:url(#SVGID_9_);}
	.st11{fill:url(#SVGID_10_);}
	.st12{fill:url(#SVGID_11_);}
	.st13{fill:url(#SVGID_12_);}
	.st14{fill:url(#SVGID_13_);}
	.st15{fill:url(#SVGID_14_);}
	.st16{fill:url(#SVGID_15_);}
	.st17{opacity:0.3;}
	.st18{fill:#FFFFFF;}
	.st19{fill:#F44C7F;}
	.st20{fill:none;stroke:#FFFFFF;stroke-width:0.7854;stroke-linecap:round;stroke-linejoin:round;stroke-miterlimit:10;}
</style>
<g>
	<path class="st0" d="M238.7,22.3c-0.5-5.9-2.5-9.6-4.1-11.6c-2.6-3.3-6.2-5-10.1-4.8c-4.6,0.2-8.7,2.6-11.4,6.7
		c-1.1,1.6-1.8,3.4-2.3,5.2c-0.7-0.3-1.5-0.6-2.3-0.8c-3.2-0.8-6.6,0-9.2,2.3c-0.7,0.6-1.3,1.3-1.8,2c-0.1-1.1-0.3-2.1-0.6-3.1
		c0-2.4-0.5-4.5-1.6-6.2c-1.6-2.4-5.2-4.8-12.8-2.2c0,0,0,0,0,0c-2.9,1-7,3.4-8.8,4.6c-1.9,1.3-4.5,3.4-5.5,5.9
		c-0.4,0.9-0.7,2.1-1,4c-0.5-2.5-1.7-4.6-4.8-4.7c-1.5-0.1-3.8,0.5-5.5,1.2c-0.1-0.2-0.3-0.5-0.4-0.7l0-0.1c0.5-1.6,0.1-3.2-1-4.5
		c-0.7-0.8-1.6-1.5-2.8-2c-1.6-0.7-3.4-1.3-5.2-1.4c-2.8-0.1-5,1.2-6.1,3.8c-0.2,0.4-0.5,1.3-1,2.7c0-0.2-0.1-0.3-0.1-0.5
		c-0.2-4-1.5-7.5-3.9-10.3c-4.2-4.9-11.4-4-16.5-0.8c-3.1,1.9-8.5,5.5-9.7,8.4c-0.1,0.2-0.2,0.5-0.3,0.8c-0.1-0.1-0.1-0.3-0.1-0.4
		c-0.9-2.1-2.6-3.7-4.6-4.4h0c-2.3-0.8-4.7-0.7-6.9,0.4c-0.2,0.1-0.4,0.2-0.6,0.3c-0.1-0.1-0.1-0.2-0.2-0.4c0-0.1-0.1-0.1-0.1-0.2
		c0.4-1.5,0.2-3-0.6-4.2c-1.2-1.8-3.6-2.9-6.7-3c-4.4-0.1-6.9,2.2-7.9,3.1c0,0,0,0,0,0c-2,1.9-5.6,12-6.9,15.9
		c-0.1-0.7-0.1-1.4-0.2-2c-0.1-0.5-0.2-0.9-0.4-1.3c-0.1-1.1-0.1-2.1-0.3-3c-0.7-3.7-3.2-4.2-4.2-4.3c-3.1-0.2-9.5,4.1-10.8,6
		c-0.1,0.2-0.2,0.4-0.4,0.7c-0.2-1-0.4-1.8-0.6-2.3c0-0.2-0.1-0.3-0.2-0.5c-0.8-1.6-2.4-2.4-3.8-2.9c-1.4-0.5-3.8-0.9-5.5-1
		c-1.6,0-5-0.1-6.2,2.7c-0.1,0.3-0.2,0.6-0.3,0.9c-1.1-0.8-2.5-1-3.9-0.6c-1.1,0.4-5.1,2.1-7.7,4.3c0.2-2,0.1-2.8-0.3-3.6
		c-0.1-0.2-0.3-0.5-0.4-0.7c0.2-2.1,0.1-2.9-0.3-3.7c-0.2-0.4-0.4-0.7-0.7-1c-0.8-0.8-1.8-1.1-3-1.1c-3.4,0.2-11.5,5.9-13.1,7.9
		c-0.2,0.3-0.4,0.5-0.5,0.8C11.7,21,9.7,31.3,9,46C8.4,56.9,8.5,72.9,9.5,79.6c0.9,5.9,1.6,9.3,2.4,11.3c1,4.8,1.9,6.3,3.1,7.1
		c0.5,0.3,1,0.5,1.6,0.6c0.1,0,0.2,0,0.4,0c2.1,0,4.9-1.4,12.8-7.9c12.8-10.4,19.9-12.9,23.6-13.2c3.3-0.2,7,1.9,11.3,4.3
		c2.6,1.5,5.5,3.1,8.7,4.5c11.1,4.8,23.4,2.8,31.2-5c2.9-2.9,4.9-5.9,6-9.1c0.3,1.6,0.5,3,0.8,4c0.2,0.7,0.4,1.4,0.7,2.1
		c0.2,0.8,0.3,1.5,0.5,2.1c0.6,2.2,1.6,5,4,6c0.7,0.3,1.4,0.4,2,0.4c1.6,0,3-0.7,3.8-1.2c1.4-0.7,5.3-3.2,6.2-5.8
		c0.1-0.4,0.2-0.9,0.2-1.4c2,3,5.8,4.5,8.6,4.3c3.1-0.2,5.8-2.2,6.6-5c0.4-1.4,0.2-3.2-0.6-4.7c0-0.2,0.1-0.4,0.1-0.6
		c1.2,0.6,2.4,1.1,3.8,1.4c0.9,0.2,1.9,0.3,2.8,0.3c3.2,0,6.3-1.2,8.8-3.3c0,0,0.1,0.1,0.1,0.1c2,2.7,4.1,5.6,6.4,8.2
		c7.4,8.1,16.1,12.7,24.1,12.7c0.5,0,1,0,1.4,0c12.5-0.9,21.3-8.1,26.6-14c7-7.9,15.9-21.2,19.7-34.7C240,33.8,239.9,27,238.7,22.3z
		 M83.5,61.1L83.5,61.1c0.2,1.1,0.6,2.2,0.9,3.3c0.1,0.3,0.1,0.6,0.2,0.9c0.5,2.3,1.2,4.1,1.8,5.5c-1.9-0.1-4-0.7-6.2-1.6
		c0.6-1,1-2.1,1.2-3.2c0.2-0.9,0.5-2.3,0.8-4.1c0.2-1.1,0.4-2.3,0.7-3.6C83.2,59.4,83.4,60.3,83.5,61.1z M96.1,67.6
		c0-1.1,0.1-2.3,0.2-3.6c0.2,0.8,0.6,1.4,1,1.9c0.1,0.1,0.2,0.2,0.3,0.3C97.2,66.6,96.7,67.1,96.1,67.6z M93.7,26
		c0,0.7,0.1,1.3,0.3,2c-0.4,0-0.8,0.1-1.3,0.2c0.3-0.8,0.6-1.6,0.9-2.4C93.6,25.9,93.7,25.9,93.7,26z M33.8,59.9
		c0.6,0.6,1.3,1.1,1.9,1.6c-2.2,0.9-4.4,1.9-6.2,2.6c-0.3-2.6-0.6-5.8-0.8-9.7c-0.1-1.2-0.1-2.5-0.1-3.8
		C29.4,53.8,31.1,57.4,33.8,59.9z M61,42.7c0.5,2.3,1.1,4.7,1.8,7c1,4.2,2.3,8.5,3.7,11.6c-0.3-0.2-0.7-0.5-1-0.7l-0.1-0.1
		c-3.2-2.1-5.9-3.5-8.6-4.1c2.2-3.4,3.5-7.5,4.1-12.7C60.9,43.5,61,43.1,61,42.7z M105.1,50.8c-2-0.8-4.1-0.7-6,0.1
		c0.6-1.5,1.2-3,1.9-4.5l0.3-0.6c1.1-2.4,1.6-3.4,1.8-4c0.6-1.8,0.4-3.6-0.5-5c0.2-0.9,0.2-1.8,0-2.7c2.1-0.3,4.2-1.3,5.8-3.2
		c-0.2,4.3-0.3,11.1-0.1,16.4c0.1,2.2,0.2,4.3,0.3,6.4C107.8,52.4,106.6,51.4,105.1,50.8z M44.5,35.6c0.3,4.6,0.1,7-0.4,8.3
		c-0.1,0.1-0.2,0.4-0.4,0.5c-0.1-0.1-0.5-0.3-0.7-0.8c-0.1-0.2-0.2-0.5-0.3-0.9c-0.1-1.7-0.1-3.8,0.1-6.2c0.2-2.8,0.8-5.6,1.2-7.8
		C44.1,30.8,44.3,33.3,44.5,35.6z M180,69.8c0.2,1.2,0.5,2.4,0.9,3.5c-1.2-0.6-2.3-1.2-3.5-2C178.4,71,179.3,70.4,180,69.8z
		 M205,62.7c-0.1,0.4-0.2,0.9-0.3,1.3c0,0,0,0,0,0c-0.1-0.9-0.3-1.8-0.6-2.6c0-0.6,0-1.1-0.1-1.7c0,0,0,0,0,0
		c-0.2-1.5-0.6-2.8-1.2-4.1c0.5-0.7,1.1-1.6,1.2-2.7c0.1-0.7,0.1-1.4,0-2.3c0.4,0.9,0.8,1.9,1.2,2.8C205.7,56.5,205.7,59.6,205,62.7
		z M183.2,53.2c0.1,0.3,0.2,0.5,0.4,0.8c0,0.2,0,0.3,0,0.5c-0.8,0.3-1.5,0.8-2.2,1.3c0-2.2,0.1-4.8,0.3-7.2c0.2-0.1,0.5-0.3,0.7-0.5
		C182.3,50,182.6,51.7,183.2,53.2z M134.8,41.9c-0.4,4.5-0.6,9.2-0.4,12.4c-0.7,0.6-1.4,1.2-2,1.8c-2.1,2.2-4.2,5.1-5.4,8.2
		c-0.6-5.2-0.9-10.1-1-14.1C128.8,48.7,131.8,46.4,134.8,41.9z M196.5,35.1c0.1,0.6,0.2,1.2,0.3,1.7c-0.3-0.1-0.7-0.3-1-0.4
		c-0.7-0.2-1.5-0.4-2.2-0.4c0.8-1.3,1.4-2.7,2-4C195.8,33.1,196.1,34.2,196.5,35.1z"/>
	<g>
		<linearGradient id="SVGID_1_" gradientUnits="userSpaceOnUse" x1="222.2549" y1="5.0642" x2="248.2511" y2="12.1541">
			<stop  offset="0" style="stop-color:#F38CB4"/>
			<stop  offset="0.1445" style="stop-color:#E884B1"/>
			<stop  offset="0.3913" style="stop-color:#D274AB"/>
			<stop  offset="0.7079" style="stop-color:#B05AA1"/>
			<stop  offset="1" style="stop-color:#904299"/>
		</linearGradient>
		<path class="st1" d="M233.8,5.8c0.7-0.4,2.1-0.7,3.2-0.4c1,0.3,2,1,2.7,1.9c0.7,1,0.9,2.1,0.9,3.1c-0.1,1-0.6,2.1-1.3,2.8
			c-0.2,0.2-0.3,0.1-0.3,0c0-0.2,0-0.7-0.1-1.1c0-0.4-0.1-0.8-0.2-1.2c-0.2-0.8-0.4-1.6-0.9-2.3c-0.4-0.7-1-1.2-1.9-1.8
			c-0.8-0.5-1.8-0.7-1.9-0.7C233.7,6,233.6,5.9,233.8,5.8z"/>
		<linearGradient id="SVGID_2_" gradientUnits="userSpaceOnUse" x1="221.8888" y1="6.4061" x2="247.8851" y2="13.496">
			<stop  offset="0" style="stop-color:#F38CB4"/>
			<stop  offset="0.1445" style="stop-color:#E884B1"/>
			<stop  offset="0.3913" style="stop-color:#D274AB"/>
			<stop  offset="0.7079" style="stop-color:#B05AA1"/>
			<stop  offset="1" style="stop-color:#904299"/>
		</linearGradient>
		<path class="st2" d="M244.2,5.1c0.7,0.2,3.7,3.4,2.6,7.8c-0.9,3.7-3.8,5.7-4.8,6.1c-0.6,0.3-1.1,0-1-0.1c0.2-0.2,0.5-0.5,0.5-0.5
			s2.4-2.7,3-5.5c0.7-3,0.3-4.8,0.1-5.9c-0.2-0.7-0.5-1.3-0.7-1.5C243.7,5.4,243.8,5,244.2,5.1z"/>
	</g>
	<g>
		<linearGradient id="SVGID_3_" gradientUnits="userSpaceOnUse" x1="1.8975" y1="92.2576" x2="15.6605" y2="97.6431">
			<stop  offset="0" style="stop-color:#F38CB4"/>
			<stop  offset="0.1445" style="stop-color:#E884B1"/>
			<stop  offset="0.3913" style="stop-color:#D274AB"/>
			<stop  offset="0.7079" style="stop-color:#B05AA1"/>
			<stop  offset="1" style="stop-color:#904299"/>
		</linearGradient>
		<path class="st3" d="M11.6,100.3c0-0.2-0.9-0.7-2.3-3.1c-1.1-1.9-1.6-4-1.8-5.6c-0.1-1.2-0.1-1.7-0.3-1.9C7,89.4,5.9,90.9,5.6,93
			c-0.3,2.6,0.9,4.8,2.7,6.2C10.1,100.5,11.6,100.5,11.6,100.3z"/>
		<linearGradient id="SVGID_4_" gradientUnits="userSpaceOnUse" x1="-0.737" y1="98.9905" x2="13.0259" y2="104.376">
			<stop  offset="0" style="stop-color:#F38CB4"/>
			<stop  offset="0.1445" style="stop-color:#E884B1"/>
			<stop  offset="0.3913" style="stop-color:#D274AB"/>
			<stop  offset="0.7079" style="stop-color:#B05AA1"/>
			<stop  offset="1" style="stop-color:#904299"/>
		</linearGradient>
		<path class="st4" d="M2.1,97c1,4,2.9,5.5,5.5,6.1c3,0.8,6,0.2,6.5,0s0.6,0.2,0,0.8c-0.6,0.6-4.3,3.1-8.7,0.9c-4-1.9-4.1-6.7-4-7.7
			C1.4,96.4,1.9,96.2,2.1,97z"/>
	</g>
	<g>
		<path class="st5" d="M233.5,11.6c-2.3-2.9-5.4-4.4-8.9-4.3c-4.1,0.2-7.8,2.4-10.3,6.1c-1.3,2-2.1,4.3-2.4,6.7
			c-1-0.7-2.2-1.3-3.7-1.7c-2.8-0.7-5.7,0-7.9,2c-2.7,2.3-4,5.9-3.5,9.9c0.4,4,2.3,6.9,4.3,10c0.6,0.9,1.1,1.8,1.7,2.7
			c3.9,6.6,5.1,13.2,3.7,20c-1.5,7.4-8.6,13.7-15.8,14c-6.3,0.3-12.4-2.4-18.8-8.1c-2.2-2-4.8-5.4-7.3-8.7c-0.7-0.9-1.4-1.8-2-2.7
			c0.9-2.6,1.6-5.2,2.1-7.6c1.4-6.7,1.8-17.3,1.6-21.3c-0.2-3.7-0.4-7.5-3.9-7.6c-1.7-0.1-4.7,0.8-5.8,1.6c-1.6,1.2-1.7,3.5-1.7,6.2
			c0,0.5,0,1,0,1.5c0,2.6,0.1,6.1-0.3,10c-0.4,3.9-0.8,7.1-1.3,9.4c-1.1-0.3-2.3-0.4-3.5-0.4c0-3.4,0.3-8.3,0.8-11.8
			c0.6-4.1,1.6-7.5,2.2-9.8l0.1-0.4c0.9-3.4,1.7-6.2,2.1-7.4l0.2-0.5c0.3-1.1,0.1-2.3-0.7-3.2c-0.5-0.7-1.3-1.2-2.2-1.6
			c-1-0.4-2.9-1.2-4.8-1.3c-2.2-0.1-3.8,0.9-4.7,2.9c-0.5,1.2-3.6,9.4-5.2,16.5c-1.4,6.3-2.2,16.9-1.7,22.2
			c-0.9,0.7-1.7,1.4-2.4,2.1c-3.9,3.9-7.6,10.5-5,15.8c1.6,3.2,5.3,4.7,8,4.5c2.6-0.2,4.8-1.8,5.5-4.1c0.4-1.3,0-3.2-0.9-4.4
			c-0.7-1-1.7-1.5-2.8-1.6c-0.6,0-1.2,0.3-1.6,0.8c-0.4,0.5-0.5,1.2-0.2,1.8c0.1,0.4,0.2,0.8,0,1c-0.2,0.2-0.5,0.2-0.6,0.1
			c-0.6-0.3-0.9-0.8-1-1.4c-0.2-1.5,0.7-3.6,2.6-5.6c0.4-0.4,0.7-0.8,1.1-1.1c1.9,2.9,4.6,4.8,8.1,5.6c0.9,0.2,1.8,0.3,2.7,0.3
			c3.3,0,6.5-1.4,8.9-3.9c0.3,0.4,0.6,0.8,0.9,1.2c2,2.7,4,5.5,6.3,8.1c7.1,7.9,15.5,12.3,23.2,12.3c0.5,0,0.9,0,1.4,0
			c12.1-0.8,20.6-7.8,25.7-13.6c6.9-7.8,15.7-20.9,19.5-34.3C238.6,27.1,238,17.2,233.5,11.6z"/>
		<path class="st5" d="M61.2,36.4c0.9,5.4,3.2,15.3,5.7,20.7c2.8,6.1,4.8,9.2,7.6,9.2c0.1,0,0.3,0,0.4,0c2.8-0.3,3.7-1.9,4.4-4.8
			c0.2-0.9,0.5-2.3,0.8-4c0.5-2.7,1.1-6,2-8.9c1.8-6.5,5-16,7.3-22.1c2.6-7.1,4.9-11.8,5.8-13.8c0.3-0.5,0.4-0.8,0.5-1
			c0.5-1.2,0.4-2.5-0.3-3.5c-0.9-1.4-2.9-2.3-5.5-2.4c-3.8-0.1-5.9,1.9-6.9,2.8c0,0,0,0,0,0c-1.4,1.4-4.6,9.4-7,16.7
			c-0.9,2.8-1.7,5.7-2.3,8.4c-0.4-4.4-0.5-7.5-0.6-9.7c0-0.7,0-1.3-0.1-1.9l0-0.6c-0.2-3.6-0.3-6.9-3.2-7.1
			c-2.4-0.2-8.3,3.6-9.4,5.4c-0.6,0.9-0.9,2.4-0.8,4.2C59.9,25.3,60.3,30.7,61.2,36.4z"/>
		<path class="st5" d="M99.1,41.6l0.3-0.6c1.1-2.3,1.6-3.3,1.8-3.9c0.6-1.8,0.2-3.6-1-4.8c-1.2-1.1-3.6-2.8-5.8-2.9
			c-1.4,0-3.4,0.5-5,3.4c-0.6,1.1-2.8,5.5-4.3,13.3c-0.9,4.7-0.9,11,0,14.7l0,0c1.7,7.3,4.3,8.7,5.4,8.9c0.2,0.1,0.5,0.1,0.7,0.1
			c0.7,0,1.3-0.2,1.9-0.7c0.6-0.5,1.3-1.5,1.1-3.4c-0.2-2.8,0-6.3,0.7-10.5C95.5,50.5,96.9,46.2,99.1,41.6z"/>
		<path class="st5" d="M95,25.3c0.8,1.6,2.2,2.7,3.7,3.1c0.6,0.2,1.3,0.3,1.9,0.3c2.9,0,6.3-1.8,7.8-5.6c0.9-2.3,1-4.7,0.1-6.8
			c-0.8-1.7-2.1-3-3.7-3.6h0c-1.9-0.7-3.9-0.6-5.8,0.3c-2.2,1.1-3.8,3.1-4.6,5.7C93.8,20.9,94,23.3,95,25.3z"/>
		<path class="st5" d="M125.9,67.3c-1.1-8-1.8-16.1-1.9-22.1c3.2-1.7,7.2-4.6,10.7-11.2c2.3-4.2,3.7-8.7,4.1-12.7
			c0.5-5.1-0.6-9.5-3.4-12.7c-3.7-4.3-10-3.3-14.7-0.5c-1.9,1.1-8,5-9.1,7.7c-0.7,1.8-1.4,9.3-1.5,11.4c0,0.3,0,0.9-0.1,1.5
			c-0.1,3.7-0.5,12.2-0.2,18.6c0.6,12.6,1.7,24.2,2.9,28.8c0.5,2,1.4,4.4,3.3,5.2c0.5,0.2,1,0.3,1.5,0.3c1.2,0,2.3-0.5,3.3-1
			c2-1,5-3.3,5.6-5.1c0.4-1.1,0.1-2.8-0.3-5.9C126.1,68.8,126,68,125.9,67.3z M123.5,29.8c0-3.1,0.2-6.4,0.4-8.2
			c0.7-1.1,1.9-2.2,2.9-2.5c0.4,0.5,0.8,2.9-0.9,6.8C125.3,27.5,124.4,28.8,123.5,29.8z"/>
		<path class="st5" d="M172.7,66.5c0.3,0,0.7,0,1.1-0.1c2.6-0.3,4.7-1.4,5.5-3.2c0.4-0.9,0.4-2.3,0.2-6.1c-0.1-1.4-0.2-2.9-0.2-3.9
			c0-2.6,0-6.3,0.4-9.6c2.6-1.5,6.9-4.8,11.1-11.1c4.6-6.9,6.1-15.7,3.4-19.8c-1.4-2-4.4-4-11.1-1.7c-2.7,0.9-6.7,3.2-8.4,4.4
			c-1.7,1.2-4.2,3.1-5,5.2c-0.5,1.1-0.9,3.2-1.4,6.6l0,0.3c-0.3,2.2-1.1,7.3-1.3,14.1c-0.2,7.3,0,14.4,0.5,18.5
			C168,64.7,169.5,66.5,172.7,66.5z M180.7,28.8c0.2-1.7,0.5-3.3,0.7-4.4c0.7-0.7,1.7-1.7,2.9-2.2c-0.2,0.8-0.7,2.1-1.6,3.8
			C182.2,27,181.5,28,180.7,28.8z"/>
		<path class="st5" d="M202,48.4c0.3-1.6-0.4-3.7-1.1-5.3c-0.4-1-1.7-4.1-5.5-5.3c-2.3-0.7-4.4-0.4-6.4,0.9c-2,1.3-3.7,3.6-4.5,5.9
			c-1,2.8-1,5.7,0,8c0.4,1,1,1.9,1.6,2.7c-1.9,0-4.7,1.7-5.6,3.5c0,0.1-0.1,0.1-0.1,0.2c-0.7,1.9-0.7,8.1,1.6,11.4
			c2,2.8,5.1,4.5,8.4,4.5c0.3,0,0.5,0,0.8,0c3.2-0.3,6.4-2.1,8.5-5c1.7-2.2,3.2-6.5,2.8-10.1c-0.4-2.8-1.7-5.4-4-7.5
			c0.7-0.3,1.2-0.7,1.6-1C200.8,50.8,201.7,49.8,202,48.4z"/>
		<path class="st5" d="M104.6,52.1c-3.3-1.4-6.8,0.5-7.9,3.1c-0.9,2.2-0.2,4.6,0.6,5.5c0.6,0.6,1.4,0.8,2.1,0.5
			c0.8-0.3,1.3-1,1.3-1.8c0-0.3,0.2-0.9,0.4-1c0,0,0,0,0,0c0.4,0.2,1.1,2.3,0.1,4.9c-1.3,3.5-6.6,8.5-13.3,8.9
			c-7.1,0.4-17.2-6.3-23.2-10.4l-0.1-0.1c-7.5-5-11.8-5.4-21-2c-4.6,1.7-11.6,4.7-15.3,6.4c-0.5-2.8-1.3-8.1-1.8-16
			c-0.5-8.5,0-19.1,1.4-28.3c1.1-7.1,1.1-8.4,0.7-9.3c-0.1-0.2-0.2-0.4-0.4-0.6c-0.3-0.3-0.9-0.7-1.9-0.7
			c-2.9,0.1-10.7,5.7-12.1,7.3c-0.1,0.1-0.2,0.3-0.3,0.5c-0.9,2.2-2.9,12.3-3.6,26.8C9.9,56.9,10,72.7,11,79.4
			c1.5,10.1,2.5,12.5,3.8,13.4c0.3,0.2,0.6,0.3,1,0.4c0.1,0,0.2,0,0.3,0c1.7,0,4.4-1.4,12.1-7.6c10.5-8.5,18.6-13,24.3-13.5
			c3.7-0.3,7.5,1.9,12,4.5c2.5,1.5,5.4,3.1,8.5,4.4c8.1,3.5,20.8,4.3,29.9-4.8c4.4-4.4,6.6-9,6.8-14.2
			C109.8,57.5,107.8,53.4,104.6,52.1z"/>
		<path class="st5" d="M28.3,43.2c0.4,3.5,2.1,8.4,5.5,11.6c2.6,2.4,5.6,3.7,8.9,3.7c1,0,2-0.1,3.1-0.3c3.5-0.8,6.9-3,8.9-5.9
			c2.3-3.3,3.7-7.4,4.2-12.8c0.6-5.6,0.1-10.9-0.3-14.3c-0.4-3.4-1.1-6.5-1.4-7.6c0-0.1-0.1-0.2-0.1-0.3c-0.4-0.9-1.3-1.5-2.9-2.1
			c-1.3-0.5-3.5-0.9-5-0.9c-1.4,0-4.1-0.1-4.8,1.8c-0.4,1-0.3,2.1,0.1,4.2c0.3,1.6,1.3,8.7,1.7,15.2c0.3,4.9,0.1,7.4-0.5,8.9
			c-0.2,0.5-0.7,1.3-1.7,1.4c-0.5,0-1.4-0.3-2.1-1.6c-0.9-1.6-1.6-6.1-1.1-12.2c0.4-4.5,1.5-9.2,1.9-11c0.1-0.4,0.1-0.6,0.2-0.7
			c0.2-1.1-0.1-2.2-0.8-2.8c-0.4-0.4-1.3-0.9-2.7-0.4c-1.6,0.5-6.5,2.8-8.5,5.2c-0.1,0.1-0.1,0.2-0.2,0.3c-0.7,1.3-1.5,5-1.8,7.9
			C28.2,33.9,27.7,38.8,28.3,43.2z"/>
	</g>
	<g>
		<linearGradient id="SVGID_5_" gradientUnits="userSpaceOnUse" x1="61.7369" y1="35.9986" x2="99.9362" y2="35.9986">
			<stop  offset="0" style="stop-color:#F38CB4"/>
			<stop  offset="0.1445" style="stop-color:#E884B1"/>
			<stop  offset="0.3913" style="stop-color:#D274AB"/>
			<stop  offset="0.7079" style="stop-color:#B05AA1"/>
			<stop  offset="1" style="stop-color:#904299"/>
		</linearGradient>
		<path class="st6" d="M84.5,9.8c0.8-0.8,2.5-2.3,5.5-2.2c3,0.1,4.9,1.3,4.1,3.2c-0.3,0.8-3.1,6-6.3,14.9
			c-2.4,6.7-5.6,15.9-7.3,22.3c-1.3,4.9-2.2,10.8-2.8,13c-0.7,2.7-1.3,3.2-2.8,3.4c-1.7,0.2-3.3-1.9-6.1-8.1
			c-2.3-5-4.6-14.6-5.6-20.2c-0.9-5.3-1.3-10.7-1.4-12.4c0-1.2,0.1-2.5,0.5-3.1c0.8-1.3,6.2-4.6,7.7-4.5c1.2,0.1,1.3,2.6,1.4,5.8
			c0.1,3.3-0.1,10.1,2.2,23.2c0.6-2.1,1.6-11,4.4-19.4C81.2,16.1,83.9,10.5,84.5,9.8z"/>
		<linearGradient id="SVGID_6_" gradientUnits="userSpaceOnUse" x1="87.0746" y1="48.7727" x2="103.379" y2="51.1442">
			<stop  offset="0" style="stop-color:#F38CB4"/>
			<stop  offset="0.1445" style="stop-color:#E884B1"/>
			<stop  offset="0.3913" style="stop-color:#D274AB"/>
			<stop  offset="0.7079" style="stop-color:#B05AA1"/>
			<stop  offset="1" style="stop-color:#904299"/>
		</linearGradient>
		<path class="st7" d="M86.9,60.4c-0.8-3.5-0.8-9.5,0.1-13.9c1.4-7.3,3.4-11.4,4.1-12.7c0.8-1.5,1.9-2.4,3.3-2.4
			c1.4,0,3.4,1.2,4.5,2.3c0.8,0.8,0.9,1.7,0.5,2.8c-0.2,0.6-0.9,2-2,4.3c-2.1,4.4-3.7,8.9-4.5,14.2c-0.9,6-0.8,9.5-0.7,10.9
			c0.1,1.4-0.4,2.2-1.4,2C89.3,67.5,87.8,64.2,86.9,60.4z"/>
		<linearGradient id="SVGID_7_" gradientUnits="userSpaceOnUse" x1="91.4079" y1="18.9806" x2="107.7124" y2="21.3521">
			<stop  offset="0" style="stop-color:#F38CB4"/>
			<stop  offset="0.1445" style="stop-color:#E884B1"/>
			<stop  offset="0.3913" style="stop-color:#D274AB"/>
			<stop  offset="0.7079" style="stop-color:#B05AA1"/>
			<stop  offset="1" style="stop-color:#904299"/>
		</linearGradient>
		<path class="st8" d="M104.1,14.4c-3.1-1.2-6.6,0.7-7.9,4.8c-1.1,3.5,0.7,6.7,3,7.3c2.4,0.7,5.9-0.5,7.4-4.3
			C108.3,18.4,106.4,15.3,104.1,14.4z"/>
		<linearGradient id="SVGID_8_" gradientUnits="userSpaceOnUse" x1="137.7135" y1="41.1587" x2="171.6774" y2="41.1587">
			<stop  offset="0" style="stop-color:#F38CB4"/>
			<stop  offset="0.1445" style="stop-color:#E884B1"/>
			<stop  offset="0.3913" style="stop-color:#D274AB"/>
			<stop  offset="0.7079" style="stop-color:#B05AA1"/>
			<stop  offset="1" style="stop-color:#904299"/>
		</linearGradient>
		<path class="st9" d="M137.9,55.6c-0.6-4.5,0.1-15.6,1.6-22.3c1.6-7,4.6-15,5.1-16.1c0.5-1.2,1.3-1.8,2.8-1.8
			c1.5,0.1,3.1,0.7,4.1,1.1c0.7,0.3,1.2,0.6,1.5,1c0.4,0.4,0.5,0.9,0.3,1.4c-0.1,0.5-1.1,3.8-2.3,7.9c-0.6,2.2-1.6,5.9-2.4,10.4
			c-0.7,4.7-1.1,11.7-0.7,14.8c0.4,3.5,1.6,4.2,2.7,4.3c1.4,0.2,2.7-1,3.2-2.2c1.4-3.3,2.2-10.4,2.5-13.7c0.5-4.9,0.3-9.2,0.3-11.7
			c0-2.3,0.1-4,1-4.7c0.6-0.5,3.2-1.3,4.5-1.2c1.4,0,1.8,1.1,2,5.8c0.2,3.6-0.1,14.1-1.5,20.8c-1,4.8-2.4,9.6-4.8,12.8
			c-2.6,3.5-6.6,5.3-10.9,4.4C141.5,65.5,138.7,60.8,137.9,55.6z"/>
		<linearGradient id="SVGID_9_" gradientUnits="userSpaceOnUse" x1="111.7183" y1="43.6123" x2="137.0092" y2="43.6123">
			<stop  offset="0" style="stop-color:#F38CB4"/>
			<stop  offset="0.1445" style="stop-color:#E884B1"/>
			<stop  offset="0.3913" style="stop-color:#D274AB"/>
			<stop  offset="0.7079" style="stop-color:#B05AA1"/>
			<stop  offset="1" style="stop-color:#904299"/>
		</linearGradient>
		<path class="st10" d="M121.7,9.7c3.5-2.1,9.1-3.5,12.3,0.1c5.3,6.2,2.9,16.2-1,23.3S124.9,42.7,122,44c0,7.2,1,16.6,1.9,23.5
			c0.4,3.1,1.1,6.3,0.7,7.2c-0.3,1-2.6,3-4.7,4c-2.5,1.3-4.1,1.6-5.3-3.3c-1.1-4.4-2.3-15.9-2.9-28.4c-0.3-7.4,0.2-17.8,0.3-20
			c0.1-2.6,0.8-9.4,1.3-10.7C114,14.9,117.9,12,121.7,9.7z M122.1,21c-0.3,2.5-0.6,9.1-0.4,13c1-0.5,4.4-3.3,6.1-7.2
			c2.4-5.6,1.4-9.9-1.2-9.5C124.6,17.7,122.8,19.7,122.1,21z"/>
		<linearGradient id="SVGID_10_" gradientUnits="userSpaceOnUse" x1="168.6768" y1="38.2856" x2="194.502" y2="38.2856">
			<stop  offset="0" style="stop-color:#F38CB4"/>
			<stop  offset="0.1445" style="stop-color:#E884B1"/>
			<stop  offset="0.3913" style="stop-color:#D274AB"/>
			<stop  offset="0.7079" style="stop-color:#B05AA1"/>
			<stop  offset="1" style="stop-color:#904299"/>
		</linearGradient>
		<path class="st11" d="M183.7,12.9c3.1-1.1,7.1-1.7,8.9,0.9c2.2,3.2,0.9,11.3-3.4,17.6c-4.3,6.4-8.6,9.5-11.3,10.9
			c-0.5,3.5-0.5,7.7-0.5,10.8c0,3,0.6,8.4,0.2,9.2c-0.6,1.2-2.3,1.9-4,2.1c-2.6,0.3-3.8-0.2-4.3-4.4c-0.6-4.1-0.8-11.2-0.5-18.2
			c0.2-7,1-12.1,1.3-14.2c0.3-1.9,0.8-4.9,1.3-6.1c0.7-1.7,3.2-3.6,4.4-4.4C177.5,15.9,181.3,13.8,183.7,12.9z M179.7,23.5
			c-0.5,2.1-1.1,6.7-1.3,9.9c1-0.5,4.2-3.2,6-6.5c2.2-4,2.8-7.4,0.4-6.9C182.6,20.5,180.6,22.5,179.7,23.5z"/>
		<linearGradient id="SVGID_11_" gradientUnits="userSpaceOnUse" x1="181.4587" y1="56.2618" x2="203.696" y2="56.2618">
			<stop  offset="0" style="stop-color:#F38CB4"/>
			<stop  offset="0.1445" style="stop-color:#E884B1"/>
			<stop  offset="0.3913" style="stop-color:#D274AB"/>
			<stop  offset="0.7079" style="stop-color:#B05AA1"/>
			<stop  offset="1" style="stop-color:#904299"/>
		</linearGradient>
		<path class="st12" d="M200.7,60.1c-0.4-3.2-2.2-5.3-3.8-6.7c-1.6-1.4-3.2-2.7-4.2-4.1c-0.4-0.7-0.7-1.4-0.2-2.1
			c0.3-0.4,1.1-0.5,1.5-0.1c0.5,0.5,0.8,1.2,1.2,2.1c0.4,0.8,1.1,1.6,2.1,1.5c0.7-0.1,1.2-0.4,1.6-0.7c0.4-0.4,1-1.1,1.2-1.9
			c0.1-0.7-0.1-2.2-0.9-4.2c-0.7-1.7-1.8-3.4-4.2-4.2c-1.6-0.5-3.2-0.4-4.7,0.7c-1.7,1.1-3.1,3.1-3.7,4.9c-0.7,2-0.9,4.5-0.1,6.6
			c1.1,2.7,4,4.9,5.3,6.6c1.1,1.4,1.3,2.7,0.4,3.5c-1,0.9-2.2,0.5-3.2-1c-1-1.6-1.4-3.7-2.6-3.8c-1-0.1-3.3,1.2-3.9,2.4
			c-0.5,1.4-0.5,7,1.4,9.7c1.8,2.5,4.6,3.9,7.5,3.7c2.7-0.2,5.4-1.8,7.2-4.2C199.8,66.9,201.1,63.1,200.7,60.1z"/>
		<linearGradient id="SVGID_12_" gradientUnits="userSpaceOnUse" x1="12.0626" y1="52.326" x2="107.7166" y2="52.326">
			<stop  offset="0" style="stop-color:#F38CB4"/>
			<stop  offset="0.1445" style="stop-color:#E884B1"/>
			<stop  offset="0.3913" style="stop-color:#D274AB"/>
			<stop  offset="0.7079" style="stop-color:#B05AA1"/>
			<stop  offset="1" style="stop-color:#904299"/>
		</linearGradient>
		<path class="st13" d="M27,13.5c0.3,0.6-0.2,4.1-0.8,8.2c-1.2,7.8-2,18.6-1.4,28.7C25.3,61.7,26.8,68.3,27,69
			c1.7-0.8,11.5-5.1,17.4-7.3c8.6-3.2,12.3-2.9,19.3,1.8c6.3,4.2,16.7,11.2,24.5,10.7c7.8-0.5,13.5-6.2,15-10.2
			c1.3-3.4,0.5-7-1.5-7.4c-2-0.4-2.7,1.9-2.7,2.9c-0.2,0.1-1-1.8-0.3-3.5c0.8-1.8,3.2-3,5.4-2.1c2.2,0.9,4,4.1,3.8,8.2
			c-0.1,3.7-1.3,8-6.2,12.9c-7.7,7.7-19,8.1-27.8,4.4c-8.6-3.7-14.8-9.6-21.4-9.1c-7.5,0.5-17.3,7.3-25.4,13.9
			c-5,4.1-9.3,7.3-10.9,7.1c-1.1-0.8-2-5.5-3-12.2c-1-6.4-1.1-22-0.5-32.9c0.7-14.9,2.8-24.5,3.5-26.2C17.3,18.3,26,12.5,27,13.5z"
			/>
		<linearGradient id="SVGID_13_" gradientUnits="userSpaceOnUse" x1="29.9529" y1="36.3335" x2="66.1459" y2="36.3335">
			<stop  offset="0" style="stop-color:#F38CB4"/>
			<stop  offset="0.1445" style="stop-color:#E884B1"/>
			<stop  offset="0.3913" style="stop-color:#D274AB"/>
			<stop  offset="0.7079" style="stop-color:#B05AA1"/>
			<stop  offset="1" style="stop-color:#904299"/>
		</linearGradient>
		<path class="st14" d="M56.9,39.2c0.6-5.1,0.2-9.8-0.3-13.9c-0.4-3.5-1.1-6.4-1.4-7.3c-0.2-0.4-1-0.8-1.9-1.1
			c-1-0.4-3.1-0.7-4.4-0.8c-1.2,0-2.8,0-3.1,0.6c-0.2,0.4-0.1,1.4,0.2,3.2c0.3,1.5,1.3,8.8,1.7,15.5c0.3,5.5,0.1,8-0.7,9.8
			c-0.6,1.5-1.8,2.4-3.2,2.5c-1.2,0.1-2.8-0.7-3.9-2.5c-1.3-2.3-1.9-7.5-1.3-13.3c0.5-5.5,2-11.4,2.1-11.9c0.1-0.5,0-1.4-1-1.1
			c-1.5,0.5-6,2.7-7.5,4.6c-0.5,0.9-1.2,3.9-1.6,7.3c-0.5,3.6-0.9,8.1-0.4,12.2c0.4,3.4,2.1,7.7,4.9,10.4c3.4,3.2,7,3.5,10.2,2.9
			c3.3-0.7,6.1-2.8,7.7-5.1C54.8,48.5,56.3,45,56.9,39.2z"/>
	</g>
	<g>
		<linearGradient id="SVGID_14_" gradientUnits="userSpaceOnUse" x1="184.1844" y1="40.5319" x2="123.5974" y2="73.2937">
			<stop  offset="0" style="stop-color:#CE90D7"/>
			<stop  offset="0.1003" style="stop-color:#C491D8"/>
			<stop  offset="0.2716" style="stop-color:#A994D9"/>
			<stop  offset="0.4931" style="stop-color:#7D99DB"/>
			<stop  offset="0.7532" style="stop-color:#40A0DE"/>
			<stop  offset="1" style="stop-color:#00A7E1"/>
		</linearGradient>
		<path class="st15" d="M134.9,58.5c-3.8,3.8-6.6,9.5-4.6,13.6c1.1,2.4,4,3.6,6.1,3.5c1.9-0.1,3.4-1.3,3.8-2.7
			c0.3-1.2-0.4-3.5-1.9-3.5c1.1,3-1.7,4.4-3.3,3.5c-2.8-1.6-2.8-5.6,1.2-9.9c0.9-1,1.9-2,3.1-2.9c-0.5-1.3-0.9-2.7-1.2-4.1
			C136.8,56.7,135.8,57.6,134.9,58.5z"/>
		<linearGradient id="SVGID_15_" gradientUnits="userSpaceOnUse" x1="244.878" y1="9.444" x2="178.3278" y2="64.2776">
			<stop  offset="0" style="stop-color:#CE90D7"/>
			<stop  offset="0.1003" style="stop-color:#C491D8"/>
			<stop  offset="0.2716" style="stop-color:#A994D9"/>
			<stop  offset="0.4931" style="stop-color:#7D99DB"/>
			<stop  offset="0.7532" style="stop-color:#40A0DE"/>
			<stop  offset="1" style="stop-color:#00A7E1"/>
		</linearGradient>
		<path class="st16" d="M224.8,9.2c-7.5,0.3-13.1,9.1-10.1,17.1c-0.3-0.3-1.8-4.8-6.8-6c-4.7-1.2-9.8,2.9-9.1,9.9
			c0.5,4.6,3.3,7.8,5.7,11.9c3.9,6.6,5.5,13.6,4,21.3c-1.7,8.5-9.8,15.2-17.6,15.5c-5.5,0.2-12.3-1.5-20.1-8.6
			c-3.2-2.9-6.9-8.2-10.2-12.4c-0.9-1.2-1.8-2.3-2.7-3.2c-0.9-1-2-1.8-3.1-2.4c-2-1-4.3-1.2-6.7-0.8c0,0.2,0,0.4,0.1,0.6
			c0.2,1.4,0.4,2.3,0.8,2.9c1-0.1,2,0,2.8,0.3c0.3,0.1,0.6,0.3,0.9,0.5c1.9,1.2,3.8,3.4,5.8,6c2.6,3.5,5.4,7.6,8.6,11.1
			c6.9,7.6,15.3,12.1,23,11.6c10.8-0.7,19-6.8,24.4-12.9c6.7-7.6,15.3-20.4,19.1-33.5C238.9,18.8,232.4,8.9,224.8,9.2z"/>
	</g>
	<g class="st17">
		<path class="st18" d="M138.3,57.2c-0.1-0.4-0.2-0.9-0.3-1.3c-1.2,0.8-2.2,1.7-3.1,2.6c-0.3,0.3-0.5,0.5-0.8,0.8
			c0.5,0.1,1.1,0.1,1.7-0.1C136.9,58.9,137.8,58.2,138.3,57.2z"/>
		<path class="st18" d="M131.2,63.4c-1.2,2.2-1.8,4.5-1.5,6.6c2-0.6,3.2-2.7,2.7-4.8C132.1,64.5,131.7,63.9,131.2,63.4z"/>
		<path class="st18" d="M138.2,69.3c1,2.7-1.2,4.1-2.8,3.7c0,0.2,0.1,0.4,0.1,0.6c0.2,0.7,0.6,1.4,1.1,1.9c1.7-0.3,3-1.3,3.4-2.7
			C140.5,71.6,139.7,69.4,138.2,69.3z"/>
		<path class="st18" d="M233.2,14.5c-1-1.8-2.3-3.2-3.7-4.1c0,0.4,0,0.8,0.1,1.1C230,13.3,231.5,14.4,233.2,14.5z"/>
		
			<ellipse transform="matrix(0.9979 -6.411858e-02 6.411858e-02 0.9979 -0.9079 14.6039)" class="st18" cx="227.1" cy="21.4" rx="3.9" ry="3.9"/>
		<path class="st18" d="M234.2,28.8c0.2,0.6,0.5,1.2,0.9,1.7c0.3-2.1,0.4-4,0.4-5.7C234.3,25.7,233.8,27.2,234.2,28.8z"/>
		<path class="st18" d="M230.7,34.8c-2.1,0.6-3.3,2.7-2.8,4.8c0.5,1.9,2.3,3.1,4.1,2.9c0.5-1.5,1-2.9,1.4-4.4
			c0.3-0.9,0.5-1.8,0.7-2.6C233.2,34.8,231.9,34.5,230.7,34.8z"/>
		<path class="st18" d="M217.2,19c2.1-0.6,3.3-2.7,2.8-4.8c-0.3-1-0.9-1.8-1.7-2.3c-2,1.7-3.4,4.1-4.1,6.7
			C215.1,19.1,216.1,19.2,217.2,19z"/>
		
			<ellipse transform="matrix(0.1748 -0.9846 0.9846 0.1748 147.5406 228.1485)" class="st18" cx="209.9" cy="26.1" rx="3.9" ry="3.9"/>
		<path class="st18" d="M217,33.4c0.6,2.1,2.7,3.3,4.8,2.8c2.1-0.6,3.3-2.7,2.8-4.8c-0.6-2.1-2.7-3.3-4.8-2.8
			C217.7,29.1,216.4,31.3,217,33.4z"/>
		
			<ellipse transform="matrix(0.9979 -6.411857e-02 6.411857e-02 0.9979 -2.3322 13.8415)" class="st18" cx="214.5" cy="43.3" rx="3.9" ry="3.9"/>
		<path class="st18" d="M224.4,45.7c-2.1,0.6-3.3,2.7-2.8,4.8c0.6,2.1,2.7,3.3,4.8,2.8c0.3-0.1,0.6-0.2,0.9-0.4
			c0.7-1.3,1.4-2.6,2-3.9c0-0.2-0.1-0.4-0.1-0.5C228.6,46.4,226.5,45.2,224.4,45.7z"/>
		<path class="st18" d="M218.1,56.7c-2.1,0.6-3.3,2.7-2.8,4.8c0.6,2.1,2.7,3.3,4.8,2.8c0.1,0,0.1,0,0.2-0.1c0.9-1.3,1.8-2.6,2.7-4
			c0-0.3-0.1-0.5-0.1-0.8C222.3,57.3,220.2,56.1,218.1,56.7z"/>
		<path class="st18" d="M202.6,33.2c-1,0.3-1.9,0.9-2.4,1.8c1,2,2.3,3.9,3.5,5.9c0.3,0,0.6-0.1,0.9-0.1c2.1-0.6,3.3-2.7,2.8-4.8
			C206.8,33.8,204.7,32.6,202.6,33.2z"/>
		<path class="st18" d="M209.2,58c2.1-0.6,3.3-2.7,2.8-4.8c-0.5-1.8-2.2-3-4.1-2.9c0.7,2.5,1,5.1,1,7.8C209,58,209.1,58,209.2,58z"
			/>
		<path class="st18" d="M211.8,67.6c-2.1,0.6-3.3,2.7-2.8,4.8c0.3,1.2,1.1,2.1,2.2,2.6c1.2-1.1,2.2-2.2,3.2-3.3
			c0.6-0.7,1.2-1.4,1.9-2.2C215.4,67.9,213.6,67.1,211.8,67.6z"/>
		<path class="st18" d="M205.5,78.5c-1.3,0.3-2.3,1.3-2.7,2.5c1.5-0.8,2.9-1.6,4.2-2.6C206.5,78.3,206,78.3,205.5,78.5z"/>
		<path class="st18" d="M196.6,79.8c1.8-0.5,2.9-2.1,2.9-3.8c-2.1,1.4-4.5,2.3-6.8,2.7C193.7,79.7,195.2,80.2,196.6,79.8z"/>
		<path class="st18" d="M188.3,83.1c-0.9,0.2-1.6,0.7-2.1,1.4c1.3,0.2,2.5,0.2,3.8,0.1c0.8-0.1,1.6-0.1,2.4-0.3
			C191.4,83.2,189.8,82.7,188.3,83.1z"/>
		<path class="st18" d="M159.1,56.1c-0.2,0.6-0.2,1.3,0,2c0.5,1.8,2.1,2.9,3.9,2.9c-0.8-1.1-1.7-2.2-2.5-3.2
			C160,57.2,159.5,56.6,159.1,56.1z"/>
		<path class="st18" d="M166.5,70.5c-0.4,0.1-0.9,0.3-1.2,0.6c0.6,0.7,1.1,1.3,1.7,2c1.2,1.3,2.4,2.5,3.7,3.6c0.7-0.9,1-2.2,0.7-3.4
			C170.7,71.2,168.6,69.9,166.5,70.5z"/>
		<path class="st18" d="M177.4,76.8c-1.5,0.4-2.5,1.6-2.8,2.9c2.2,1.5,4.5,2.7,6.7,3.5c0.9-1,1.3-2.3,0.9-3.7
			C181.6,77.5,179.5,76.2,177.4,76.8z"/>
		<path class="st18" d="M148.1,51.4c0,0.1,0,0.3,0.1,0.4c0.6,2.1,2.7,3.3,4.8,2.8c1.1-0.3,1.9-1,2.4-1.9c-0.3-0.2-0.5-0.3-0.8-0.4
			C152.7,51.3,150.4,51,148.1,51.4z"/>
	</g>
	<g class="st17">
		<path class="st19" d="M154.5,57.4l-8.9,8.9c0.5,0.2,1,0.3,1.5,0.4c0.1,0,0.2,0,0.4,0.1l8.2-8.2C155.3,58.2,154.9,57.8,154.5,57.4z
			"/>
		<path class="st19" d="M157.8,54.6c0.3,0.3,0.6,0.6,0.9,1l3.6-3.6c0.2-0.8,0.4-1.7,0.6-2.5c0-0.2,0.1-0.4,0.1-0.6l-5.5,5.5
			C157.6,54.4,157.7,54.5,157.8,54.6z"/>
		<path class="st19" d="M180.3,34l11.5-11.5l1.7-1.7c0.1-0.9,0.2-1.8,0.2-2.6l-3.1,3.1l-7,7c-1.8,2.6-4.3,4.7-5.2,5.2c0,0,0,0,0,0
			l-9.7,9.7c0,0.8,0,1.6,0,2.5l0.2-0.2L180.3,34z"/>
		<path class="st19" d="M156.5,40.9c-0.1,0.8-0.2,1.7-0.3,2.7l5.4-5.4l2.7-2.7c0-0.9,0.1-1.7,0.1-2.5l-4,4L156.5,40.9z"/>
		<path class="st19" d="M148,51.4C148,51.4,148,51.4,148,51.4L148,51.4c0-0.6-0.1-1.2-0.1-2l-9.2,9.2c0.2,0.6,0.4,1.2,0.7,1.7
			l8.7-8.7C148,51.7,148,51.6,148,51.4z"/>
		<path class="st19" d="M184.5,15.3l3.2-3.2c-1,0.1-2,0.3-3,0.6l-1.5,1.5l-11.5,11.5l-1.7,1.7c0,0.2-0.1,0.3-0.1,0.5
			c-0.1,0.6-0.2,1.3-0.3,2.3l3.3-3.3L184.5,15.3z"/>
		<path class="st19" d="M124.7,74.8c0.1-0.4,0.1-1.2,0-2.1l-7,7c0.7,0,1.4-0.4,2.3-0.8c0.9-0.5,1.9-1.1,2.7-1.8l1.6-1.6
			C124.5,75.2,124.7,75,124.7,74.8z"/>
		<path class="st19" d="M179.3,25.3c0.1-0.7,0.3-1.3,0.4-1.8c0.8-1,2.7-2.8,4.8-3.3l2.5-2.5l4.8-4.8c-0.5-0.4-1-0.6-1.7-0.8
			l-4.3,4.3l-11.5,11.5l-4.8,4.8c-0.1,0.8-0.2,1.7-0.3,2.7l6.3-6.3L179.3,25.3z"/>
		<path class="st19" d="M148.7,54.8C148.7,54.8,148.7,54.8,148.7,54.8c-0.1-0.1-0.1-0.2-0.1-0.3c0,0,0-0.1,0-0.1
			c0-0.1-0.1-0.2-0.1-0.4c0-0.1,0-0.1-0.1-0.2l-8.2,8.2c0.3,0.5,0.7,0.9,1,1.4l7.9-7.9C149,55.3,148.9,55.1,148.7,54.8z"/>
		<path class="st19" d="M155.8,46.4c-0.1,1-0.3,1.9-0.5,2.9l8.7-8.7l0,0c0.1-0.9,0.1-1.7,0.2-2.6l-1.4,1.4L155.8,46.4z"/>
		<path class="st19" d="M178.6,30.8c0.1-0.9,0.2-1.8,0.3-2.7l-2.2,2.2l-7.7,7.7c-0.1,0.8-0.1,1.7-0.1,2.6l9.1-9.1L178.6,30.8z"/>
		<path class="st19" d="M156.2,53.2l7.2-7.2c0.1-0.9,0.2-1.8,0.3-2.7l-9.1,9.1C155.3,52.5,155.8,52.9,156.2,53.2z"/>
		<path class="st19" d="M152.6,55.9c-0.5,0.4-1.2,0.6-1.8,0.5c0,0-0.1,0-0.1,0l-8.2,8.2c0.4,0.4,0.9,0.7,1.4,1l9.2-9.2
			C153,56.1,152.8,56,152.6,55.9z"/>
		<path class="st19" d="M186.3,20.8c0.2,0.6,0.1,1.5-0.3,2.7l3.4-3.4l4.1-4.1c-0.1-0.7-0.3-1.3-0.6-1.8l-4.7,4.7L186.3,20.8z"/>
		<path class="st19" d="M163.8,24l-6.9,6.9c0,0.7,0,1.5,0,2.4l7.3-7.3C164.1,25.1,163.9,24.4,163.8,24z"/>
		<path class="st19" d="M123.8,66.3c-0.1-0.7-0.2-1.4-0.3-2.1l-2.3,2.3l-7,7c0.1,0.8,0.3,1.4,0.4,2l7.7-7.7L123.8,66.3z"/>
		<path class="st19" d="M148.2,41.9c0.1-0.9,0.2-1.8,0.3-2.7l-4.3,4.3l-6.4,6.4c0,0.8,0,1.7,0,2.4l7.6-7.6L148.2,41.9z"/>
		<path class="st19" d="M164.3,28.2l-6.3,6.3l-1.2,1.2c0,0.8-0.1,1.7-0.1,2.5l2.5-2.5l5.2-5.2c0-0.7,0-1.4,0-1.9
			C164.4,28.5,164.4,28.4,164.3,28.2z"/>
		<path class="st19" d="M147.9,47c0-0.8,0.1-1.7,0.1-2.5l-1.5,1.5l-8.7,8.7c0,0.3,0.1,0.6,0.1,0.9c0.1,0.4,0.1,0.8,0.2,1.2l9.6-9.6
			L147.9,47z"/>
		<path class="st19" d="M175.8,17.1c-0.4,0.3-1,0.7-1.5,1.2l-2.3,2.3c-0.2,0.3-0.4,0.7-0.6,1c-0.3,0.6-0.5,1.6-0.7,2.7l10-10
			C178.8,15.2,176.9,16.3,175.8,17.1z"/>
		<path class="st19" d="M124.1,68.5l-0.5,0.5l-8.4,8.4c0.3,0.7,0.5,1.2,0.9,1.6l8.3-8.3C124.3,69.9,124.2,69.2,124.1,68.5z"/>
		<path class="st19" d="M157.8,61.2c-0.4-0.5-0.7-0.9-1.1-1.3l-7.1,7.1c1,0,2-0.2,3-0.6L157.8,61.2z"/>
		<path class="st19" d="M160.5,57.8c0.3-0.8,0.6-1.6,0.9-2.5l-1.6,1.6C160,57.2,160.2,57.5,160.5,57.8z"/>
		<path class="st19" d="M182.7,36.4l8.6-8.6c0.6-1.3,1.1-2.6,1.4-3.9l-11.2,11.2l-11.5,11.5l-1.4,1.4c0,0.8,0,1.6,0,2.4l2.6-2.6
			L182.7,36.4z"/>
		<path class="st19" d="M181.1,40.4c1.8-1.4,3.9-3.3,6-6l-3.2,3.2L181.1,40.4z"/>
		<path class="st19" d="M177.6,46.3c0.1-0.9,0.1-1.8,0.2-2.6l-5.3,5.3l-3.7,3.7c0,0.8,0.1,1.6,0.1,2.3l4.8-4.8L177.6,46.3z"/>
		<path class="st19" d="M177.4,51.3c0-0.8,0-1.6,0.1-2.5l-2.6,2.6l-5.9,5.9c0.1,0.8,0.1,1.5,0.2,2.2l6.9-6.9L177.4,51.3z"/>
		<path class="st19" d="M177.4,53.7l-0.1,0.1l-7.7,7.7c0.2,0.8,0.4,1.3,0.6,1.8l7.3-7.3C177.5,55.2,177.4,54.4,177.4,53.7z"/>
		<path class="st19" d="M194.1,39.5c-0.9-0.1-1.8-0.1-2.6,0.2l-2.7,2.7l-1.9,1.9c-0.2,0.3-0.3,0.7-0.4,1c-0.3,0.7-0.4,1.5-0.5,2.4
			l4.1-4.1L194.1,39.5z"/>
		<path class="st19" d="M177.6,58.3l-6.1,6.1c0.6,0.2,1.3,0.2,2.1,0.1c0.1,0,0.2,0,0.3,0l3.8-3.8C177.7,60,177.7,59.2,177.6,58.3z"
			/>
		<path class="st19" d="M197.3,41.1c-0.4-0.4-0.9-0.7-1.4-1l-4.7,4.7l-5.3,5.3c0.1,0.6,0.2,1.3,0.5,1.9c0,0,0,0,0,0.1l6-6
			L197.3,41.1z"/>
		<path class="st19" d="M194,47.2c0.3,0.3,0.5,0.7,0.8,1.2l4.4-4.4c0-0.1,0-0.1-0.1-0.2c-0.2-0.5-0.4-1-0.7-1.5l-4.6,4.6
			C193.9,47.1,193.9,47.1,194,47.2z"/>
		<path class="st19" d="M192.8,49.3c-0.2-0.3-0.3-0.6-0.4-0.9l-5.1,5.1c0.3,0.5,0.7,0.9,1.1,1.4l4.9-4.9
			C193.1,49.7,192.9,49.5,192.8,49.3z"/>
		<path class="st19" d="M185.9,57.3c-1.1,0.2-3,1.3-3.5,2.4c-0.1,0.3-0.2,0.8-0.2,1.4l1.2-1.2L185.9,57.3z"/>
		<path class="st19" d="M188.2,59.8c-0.3-0.6-0.5-1.2-0.8-1.6l-2.9,2.9l-2.4,2.4c0,0.7,0.1,1.4,0.3,2.2l3.4-3.4L188.2,59.8z"/>
		<path class="st19" d="M195.7,49.9c0.4,0.5,0.9,0.9,1.6,0.8l2.8-2.8c0-0.5,0-1.2-0.3-2.1l-3.8,3.8L195.7,49.9z"/>
		<path class="st19" d="M194.4,51.2l-5,5c0.4,0.4,0.8,0.8,1.2,1.2l5.1-5.1C195.3,51.9,194.8,51.6,194.4,51.2z"/>
		<path class="st19" d="M190.4,62.5c-0.5-0.1-0.9-0.5-1.3-1.1l-2.1,2.1l-4.1,4.1c0.2,0.6,0.5,1.2,0.8,1.6l4.5-4.5L190.4,62.5z"/>
		<path class="st19" d="M197,53.4l-5.2,5.2c0.4,0.6,0.7,1.1,0.8,1.6l5.7-5.7C197.8,54.2,197.4,53.8,197,53.4z"/>
		<path class="st19" d="M200.1,57.6c-0.2-0.6-0.5-1.1-0.8-1.6l-9.9,9.9l-4.7,4.7c0.4,0.4,0.8,0.8,1.3,1.1l4.5-4.5L200.1,57.6z"/>
		<path class="st19" d="M200.8,61.7c0-0.5,0-1.1,0-1.6c0-0.2-0.1-0.4-0.1-0.7l-8.9,8.9l-4.2,4.2c0.6,0.3,1.2,0.4,1.9,0.5l3.5-3.5
			L200.8,61.7z"/>
		<path class="st19" d="M197.6,69.7c0.2-0.3,0.5-0.5,0.7-0.8c0.8-1,1.5-2.6,2-4.3l-6.1,6.1l-2.2,2.2c1.8-0.3,3.6-1.3,5.1-2.7
			L197.6,69.7z"/>
		<path class="st19" d="M153.2,17.7c0-0.1-0.1-0.1-0.1-0.2c-0.3-0.4-0.7-0.7-1.2-0.9l-5.9,5.9l-4.9,4.9c-0.3,1.1-0.6,2.2-0.9,3.3
			l7-7L153.2,17.7z"/>
		<path class="st19" d="M89.9,81l11.5-11.5l6.3-6.3c0-0.4,0.1-0.7,0.1-1.1c0-0.5,0-0.9,0-1.4l-6.4,6.4c-0.8,1-1.8,2.1-3,3l-9.6,9.6
			l-1.8,1.8c0.9-0.1,1.9-0.2,2.8-0.4L89.9,81z"/>
		<path class="st19" d="M122.2,48.7c0-0.8-0.1-1.6-0.1-2.3l-9.7,9.7c0.1,0.8,0.1,1.5,0.2,2.2l0.3-0.3L122.2,48.7z"/>
		<path class="st19" d="M122.4,53.2c-0.1-0.8-0.1-1.5-0.2-2.3l-8.3,8.3l-1.3,1.3c0.1,0.8,0.1,1.5,0.2,2.2l2.3-2.3L122.4,53.2z"/>
		<path class="st19" d="M93,80.3c1.6-0.6,3.1-1.3,4.6-2.2l6.1-6.1l1.3-1.3c1-1.6,1.6-3,2-4.5l-4.5,4.5L93,80.3z"/>
		<path class="st19" d="M152,23.7c0.4-1.4,0.7-2.5,1-3.4l-4.6,4.6l-9,9c-0.2,0.9-0.4,1.9-0.5,2.9l10.7-10.7L152,23.7z"/>
		<path class="st19" d="M150.2,30.3c0.3-1.3,0.6-2.4,0.9-3.3l-0.3,0.3l-11.5,11.5l-0.8,0.8c-0.1,0.9-0.2,1.8-0.3,2.7l2.3-2.3
			L150.2,30.3z"/>
		<path class="st19" d="M122.8,57.7c-0.1-0.7-0.1-1.5-0.2-2.2l-6.2,6.2l-3.3,3.3c0.1,0.7,0.2,1.5,0.2,2.2l4.3-4.3L122.8,57.7z"/>
		<path class="st19" d="M162.3,22.9c-0.7,0-1.8,0.2-2.8,0.5l-2.6,2.6c-0.1,0.7-0.1,1.6-0.1,2.5l5.6-5.6
			C162.4,22.9,162.4,22.9,162.3,22.9z"/>
		<path class="st19" d="M148.9,36.4c0.2-1,0.4-2,0.6-3l-7.7,7.7l-3.8,3.8c-0.1,0.9-0.1,1.7-0.1,2.6l5.1-5.1L148.9,36.4z"/>
		<path class="st19" d="M123.3,62c-0.1-0.7-0.2-1.4-0.2-2.2l-4.2,4.2l-5.2,5.2c0.1,0.7,0.2,1.5,0.3,2.1l6.1-6.1L123.3,62z"/>
		<path class="st19" d="M27,13.6c0-0.1,0-0.1,0-0.1c-0.3-0.3-1.6,0.1-3.2,1l-0.2,0.2L15,23.2c-0.2,0.8-0.4,1.8-0.6,3l10.3-10.3
			L27,13.6z"/>
		<path class="st19" d="M26.5,18.9c0.1-1,0.3-2,0.4-2.8L26,17.1L14.5,28.5L14,29c-0.1,0.9-0.3,1.8-0.4,2.8l2.1-2.1L26.5,18.9z"/>
		<path class="st19" d="M74.3,70.1l-6.4,6.4c0.5,0.3,1,0.6,1.6,0.9l6.4-6.4C75.3,70.6,74.8,70.3,74.3,70.1z"/>
		<path class="st19" d="M93.1,53.6c0.2-1.1,0.4-2.1,0.7-3.1l-5.8,5.8l-1.6,1.6c0.1,0.8,0.2,1.5,0.3,2.1l2.5-2.5L93.1,53.6z"/>
		<path class="st19" d="M127,17.3c0.6,0,1.1,0.4,1.4,1l6.6-6.6l0.1-0.1c-0.3-0.5-0.6-1-1-1.4l-0.3,0.3L127,17.3z"/>
		<path class="st19" d="M121.7,25c0.1-1,0.1-1.8,0.2-2.6l-10,10c0,0.8-0.1,1.6-0.1,2.5l0.4-0.4L121.7,25z"/>
		<path class="st19" d="M121.6,30c0-0.8,0-1.6,0.1-2.5l-8.3,8.3l-1.6,1.6c0,0.8,0,1.6,0,2.4l2.9-2.9L121.6,30z"/>
		<path class="st19" d="M77.5,71.6L71,78.1c0.5,0.3,1.1,0.5,1.6,0.8l6.5-6.5C78.6,72.1,78.1,71.9,77.5,71.6z"/>
		<path class="st19" d="M92.4,59.2c0.1-0.8,0.2-1.7,0.3-2.7l-2.2,2.2l-3.2,3.2c0.2,0.6,0.4,1.2,0.6,1.8l3.8-3.8L92.4,59.2z"/>
		<path class="st19" d="M128.9,22.6l7.6-7.6c-0.2-0.6-0.4-1.2-0.6-1.8l-6.9,6.9C129.1,20.8,129.1,21.7,128.9,22.6z"/>
		<path class="st19" d="M128.5,27.9l8.5-8.6c0-0.8,0-1.6-0.1-2.3l-8.9,8.9c-0.1,0.3-0.2,0.6-0.3,0.8c-1.7,3.9-5,6.7-6.1,7.2
			c0-0.5,0-1,0-1.6l-5.8,5.8l-4.1,4.1c0,0.8,0,1.6,0,2.4l5.2-5.2L128.5,27.9z"/>
		<path class="st19" d="M82.8,73.6c-0.6-0.2-1.2-0.3-1.9-0.6l-6.6,6.6c0.6,0.2,1.2,0.4,1.8,0.6l6.5-6.5L82.8,73.6z"/>
		<path class="st19" d="M98.5,56c-0.3,0.7-0.3,1.5-0.2,2.1l4.5-4.5C100.9,53.4,99.2,54.5,98.5,56z"/>
		<path class="st19" d="M92.2,61.8l-3.6,3.6c0.3,0.6,0.6,1.1,0.9,1.5l2.6-2.6C92.1,63.6,92.1,62.8,92.2,61.8z"/>
		<path class="st19" d="M130.9,30.3l5.3-5.3c0.3-1,0.5-2,0.6-3l-7.1,7.1l-11.5,11.5l-6.4,6.4c0,0.1,0,0.1,0,0.2
			c0,0.7,0.1,1.4,0.1,2.1l7.5-7.5L130.9,30.3z"/>
		<path class="st19" d="M104.5,54.2l-2.5,2.5c0.5,0.2,0.9,0.7,1.1,1.3l2.6-2.6C105.4,54.9,105,54.5,104.5,54.2z"/>
		<path class="st19" d="M92.2,66.6L91,67.8C91.6,67.9,92,67.4,92.2,66.6z"/>
		<path class="st19" d="M87,74.2c-0.7,0-1.5-0.1-2.2-0.2l-1,1L78,80.8c0.7,0.2,1.3,0.3,2,0.4l5-5L87,74.2z"/>
		<path class="st19" d="M150.1,15.9c-0.6-0.2-1.3-0.4-1.9-0.5l-4.7,4.7l-0.1,0.1c-0.4,1-0.8,2.3-1.3,3.7l2.6-2.6L150.1,15.9z"/>
		<path class="st19" d="M92.8,73.2c-1,0.4-2.1,0.6-3.2,0.8l-3.3,3.3l-4.1,4.1c0.8,0.1,1.5,0.1,2.3,0.1l3.1-3.1L92.8,73.2z"/>
		<path class="st19" d="M106.7,56.9l-3,3c0.1,0.8,0,1.7-0.2,2.6l3.8-3.8C107.2,58,107,57.4,106.7,56.9z"/>
		<path class="st19" d="M133.1,33c0.7-1.4,1.4-2.9,2-4.4l-3,3L120.6,43l-8.6,8.6c0,0.8,0.1,1.5,0.1,2.3l9.6-9.6L133.1,33z"/>
		<path class="st19" d="M96.4,23.8c0.2,0.6,0.5,1.1,0.9,1.5l2.8-2.8l6.2-6.2c-0.3-0.5-0.7-0.9-1.2-1.2l-6.3,6.3L96.4,23.8z"/>
		<path class="st19" d="M60.9,61.8c-0.5-0.3-1.1-0.6-1.6-0.8l-6.2,6.2l-3.6,3.6c1-0.2,1.9-0.4,2.8-0.5c0,0,0,0,0.1,0l1.9-1.9
			L60.9,61.8z"/>
		<path class="st19" d="M67.4,52.9c0.2,0.6,0.4,1.2,0.7,1.8l9.2-9.2l5.8-5.8c0.4-1.2,0.8-2.4,1.2-3.6L76,44.2L67.4,52.9z"/>
		<path class="st19" d="M98.7,26.4c0.2,0.1,0.4,0.2,0.6,0.2c0.4,0.1,0.9,0.2,1.4,0.2l1.9-1.9l4.7-4.7c0.1-0.8,0-1.6-0.1-2.3
			l-5.8,5.8L98.7,26.4z"/>
		<path class="st19" d="M63.8,63.6c-0.1,0-0.2-0.1-0.2-0.2c-0.4-0.3-0.8-0.5-1.2-0.8l-6.9,6.9l-0.8,0.8c0.7,0.1,1.3,0.2,2,0.4l0,0
			L63.8,63.6z"/>
		<path class="st19" d="M68.7,56.3c0.3,0.6,0.5,1.1,0.8,1.6l10.1-10.1l1.2-1.2c0.3-1.1,0.7-2.2,1-3.4l-3.5,3.5L68.7,56.3z"/>
		<path class="st19" d="M95.8,31.7c-0.5-0.2-1-0.3-1.5-0.4c-0.2,0-0.5,0-0.7,0.1l-2.9,2.9c-0.4,0.8-1,2.2-1.7,4.1l2.1-2.1L95.8,31.7
			z"/>
		<path class="st19" d="M65.3,64.6l-6.8,6.8c0.6,0.2,1.1,0.5,1.7,0.7l6.6-6.6C66.2,65.2,65.8,64.9,65.3,64.6z"/>
		<path class="st19" d="M123.5,8.7c-0.7,0.3-1.3,0.6-1.8,1c-1.6,1-3.3,2.1-4.7,3.2l-1.8,1.8l-1.7,1.7c0,0,0,0.1,0,0.1
			c-0.2,0.5-0.4,1.6-0.6,3l3.6-3.6L123.5,8.7z"/>
		<path class="st19" d="M105.4,24.5l-0.7,0.7C104.9,25,105.1,24.8,105.4,24.5z"/>
		<path class="st19" d="M71.2,61.1l8.1-8.1c0.2-1,0.4-2.1,0.7-3.1l-9.7,9.7C70.6,60.1,70.9,60.6,71.2,61.1z"/>
		<path class="st19" d="M98.7,33.6c-0.4-0.4-0.9-0.7-1.4-1l-5.1,5.1L88,41.9c-0.3,1-0.5,2-0.8,3.2l6.3-6.3L98.7,33.6z"/>
		<path class="st19" d="M68.2,66.5L61.7,73c0.5,0.3,1,0.6,1.6,0.9l6.4-6.4C69.2,67.1,68.7,66.8,68.2,66.5z"/>
		<path class="st19" d="M98.4,38.7c0.5-1.1,0.9-1.8,1-2.2c0.2-0.5,0.2-0.9,0.2-1.4L94.7,40l-8,8c-0.1,0.9-0.2,1.8-0.3,2.7l9.5-9.5
			L98.4,38.7z"/>
		<path class="st19" d="M73.3,63.8l4.8-4.8c0.2-0.9,0.4-1.9,0.6-3l-6.5,6.5C72.5,63.1,72.9,63.5,73.3,63.8z"/>
		<path class="st19" d="M129.5,7.6c-0.8-0.1-1.7,0-2.5,0.1l-9.4,9.4l-5.1,5.1c-0.1,0.9-0.2,1.8-0.3,2.7l6.6-6.6L129.5,7.6z"/>
		<path class="st19" d="M94.8,47.1c0.4-1.3,0.9-2.6,1.5-3.9l-10,10c0,0.8,0,1.6,0,2.4l0.5-0.5L94.8,47.1z"/>
		<path class="st19" d="M77.3,62.2l-2.1,2.1C76.2,64.2,76.8,63.7,77.3,62.2z"/>
		<path class="st19" d="M132.7,9.2l0.3-0.3c-0.5-0.4-1-0.7-1.5-0.9L120,19.5l-7.9,7.9c0,0.5-0.1,1.4-0.1,2.5l9.2-9.2L132.7,9.2z"/>
		<path class="st19" d="M71.2,68.3l-6.4,6.4c0.5,0.3,1,0.6,1.5,0.9l6.4-6.4C72.2,68.9,71.7,68.6,71.2,68.3z"/>
		<path class="st19" d="M24.7,35.2c0.1-0.9,0.1-1.7,0.2-2.6l-3.2,3.2L12.4,45c0,0.4,0,0.8-0.1,1.2c0,0.5,0,0.9-0.1,1.4L22.9,37
			L24.7,35.2z"/>
		<path class="st19" d="M31.4,26.1c-0.2,0.9-0.4,1.9-0.6,3l3.6-3.6l6.3-6.3c-0.1-0.3-0.4-0.5-1-0.3c-0.4,0.1-1.2,0.4-2,0.8l-4.5,4.5
			L31.4,26.1z"/>
		<path class="st19" d="M25.4,58.7c-0.1-0.7-0.1-1.4-0.2-2.2l-2.8,2.8L12.2,69.4c0,0.8,0.1,1.6,0.1,2.3l11.2-11.2L25.4,58.7z"/>
		<path class="st19" d="M62.2,20.6c-0.2,0.4-0.4,1-0.5,1.6l4.8-4.8C64.7,18.4,62.7,19.9,62.2,20.6z"/>
		<path class="st19" d="M56.7,25.4c0-0.1,0-0.2,0-0.4l-8.8,8.8c0,0.5,0.1,1,0.1,1.5c0,0.3,0,0.5,0,0.7l8.9-8.9
			C56.8,26.6,56.7,26,56.7,25.4z"/>
		<path class="st19" d="M32.2,49.4c0.3,0.5,0.6,1,0.9,1.5L35,49l4.7-4.7c-0.2-0.5-0.4-1.2-0.6-1.9l-5.3,5.3L32.2,49.4z"/>
		<path class="st19" d="M57.2,31.7c0-0.8-0.1-1.5-0.1-2.3l-9,9c0,0.9,0,1.7,0,2.4l0.9-0.9L57.2,31.7z"/>
		<path class="st19" d="M70.2,16.2l-8.5,8.5c0,0.6,0.1,1.4,0.2,2.2l9.1-9.1C70.9,16.9,70.7,16.4,70.2,16.2z"/>
		<path class="st19" d="M25.9,63c-0.1-0.7-0.2-1.4-0.3-2.1l-0.9,0.9L13.3,73.2L12.4,74c0.1,0.8,0.1,1.5,0.2,2.2l1.9-1.9L25.9,63z"/>
		<path class="st19" d="M34.1,52.3c0.3,0.4,0.6,0.7,1,1c0.1,0.1,0.1,0.1,0.2,0.2l2.1-2.1l4.4-4.4c-0.4-0.3-0.9-0.7-1.2-1.2l-4.3,4.3
			L34.1,52.3z"/>
		<path class="st19" d="M36.6,54.6c0.5,0.3,1,0.6,1.5,0.9l1.7-1.7l11.5-11.5l5.8-5.8c0-0.8,0.1-1.7,0.1-2.5l-7.1,7.1l-2.4,2.4
			c-0.1,0.6-0.3,1.1-0.5,1.6c-0.6,1.5-1.8,2.4-3.2,2.5c-0.1,0-0.2,0-0.4,0l-4.9,4.9L36.6,54.6z"/>
		<path class="st19" d="M71.4,22.3c0-0.1,0-0.2,0-0.4c0-0.7-0.1-1.3-0.1-2l-9.1,9.1c0.1,0.7,0.2,1.4,0.2,2.2l0.3-0.3L71.4,22.3z"/>
		<path class="st19" d="M26.6,67.1c-0.1-0.6-0.2-1.3-0.4-2.1L15.7,75.6l-2.9,2.9c0,0.2,0.1,0.5,0.1,0.7c0.1,0.5,0.1,1,0.2,1.4
			l3.8-3.8L26.6,67.1z"/>
		<path class="st19" d="M41,55.1l-1.1,1.1c0.7,0.2,1.4,0.3,2.1,0.3l0.2-0.2l11.5-11.5l2.8-2.8c0.2-0.9,0.3-1.8,0.4-2.7
			c0,0,0,0,0-0.1l-4.4,4.4L41,55.1z"/>
		<path class="st19" d="M82.7,13.4c-0.5,1.1-1.1,2.5-1.7,4.1l7.1-7.1l2.8-2.8c-0.3,0-0.5-0.1-0.8-0.1c-0.6,0-1.2,0-1.7,0.1l-1.5,1.5
			L82.7,13.4z"/>
		<path class="st19" d="M30.8,67.7l0.8-0.8c-2,0.9-3.6,1.6-4.4,1.9L18.1,78l-4.6,4.6c0.1,0.7,0.2,1.4,0.4,2l5.5-5.5L30.8,67.7z"/>
		<path class="st19" d="M71.5,27c0-0.9-0.1-1.6-0.1-2.3l-7.5,7.5l-1.2,1.2c0.1,0.7,0.2,1.4,0.3,2.1l2.1-2.1L71.5,27z"/>
		<path class="st19" d="M33.2,70.1l6.7-6.7c-1.4,0.5-2.7,1.1-4.1,1.7L32,68.9L20.5,80.4l-6.3,6.3c0.2,0.7,0.3,1.4,0.5,1.9l7-7
			L33.2,70.1z"/>
		<path class="st19" d="M79.5,21.4c-0.4,1.2-0.8,2.4-1.3,3.7l0.8-0.8l11.5-11.5l3.6-3.6c-0.2-0.5-0.7-0.8-1.3-1.1l-3.5,3.5
			L79.5,21.4z"/>
		<path class="st19" d="M44.5,56.4c0.2,0,0.5-0.1,0.7-0.1c1-0.2,1.9-0.5,2.8-0.9l6.2-6.2c0.6-1.1,1.1-2.4,1.6-4L54.9,46L44.5,56.4z"
			/>
		<path class="st19" d="M71.8,31.5c-0.1-0.8-0.1-1.5-0.2-2.2l-5.3,5.3l-3,3c0.1,0.6,0.3,1.3,0.4,2l3.8-3.8L71.8,31.5z"/>
		<path class="st19" d="M35.6,72.5l11.5-11.5l0.5-0.5c-1,0.3-2.1,0.7-3.2,1.1c-0.2,0.1-0.3,0.1-0.5,0.2l-9.5,9.5L22.9,82.8l-7.6,7.6
			c0.2,0.4,0.4,0.7,0.6,0.9c0.3,0,0.7-0.1,1.2-0.3l7-7L35.6,72.5z"/>
		<path class="st19" d="M72.3,35.9c-0.1-0.8-0.2-1.5-0.2-2.2L68.8,37l-4.5,4.5c0.1,0.6,0.3,1.3,0.5,2l5.3-5.3L72.3,35.9z"/>
		<path class="st19" d="M80.2,25.5l-3.1,3.1c-0.3,1.1-0.6,2.2-0.9,3.3l5.2-5.2l9.9-9.9c0.9-1.9,1.6-3.4,2.1-4.5l-1.7,1.7L80.2,25.5z
			"/>
		<path class="st19" d="M72.8,40.2c-0.1-0.7-0.2-1.4-0.3-2.1l-1.3,1.3l-6,6c0.2,0.6,0.3,1.3,0.5,1.9l6.7-6.7L72.8,40.2z"/>
		<path class="st19" d="M49.5,63.5l3.9-3.9c-0.8,0-1.7,0.1-2.7,0.2l-2.5,2.5L36.8,73.8L25.3,85.2l-0.9,0.9c0.8-0.6,1.6-1.3,2.5-2
			c2.5-2,5.2-4.1,7.9-6L38,75L49.5,63.5z"/>
		<path class="st19" d="M75.5,35c-0.2,1-0.4,2.1-0.6,3l8.9-8.9l4.2-4.2c0.5-1.4,1-2.7,1.5-3.9l-7,7L75.5,35z"/>
		<path class="st19" d="M74.4,41c-0.2,1.2-0.4,2.2-0.5,2.9l0.9-0.9l10.6-10.6c0.4-1.3,0.9-2.5,1.3-3.7L85,30.3L74.4,41z"/>
		<path class="st19" d="M57.5,60.3c-0.6-0.2-1.3-0.4-1.9-0.5l-5,5l-9.4,9.4c1.6-0.9,3.1-1.6,4.6-2.2l6-6L57.5,60.3z"/>
		<path class="st19" d="M96.3,19c0,0.1-0.1,0.1-0.1,0.2C96,20.1,95.9,21,96,21.8l1.7-1.7l5.8-5.8c-0.8-0.2-1.6-0.2-2.4,0l-4.6,4.6
			L96.3,19z"/>
		<path class="st19" d="M73.1,42.3l-6.9,6.9c0.2,0.6,0.4,1.2,0.6,1.8l6.7-6.7C73.3,43.6,73.2,42.9,73.1,42.3z"/>
		<path class="st19" d="M55.5,18.9c-0.1-0.4-0.2-0.6-0.2-0.8c-0.1-0.2-0.4-0.4-0.7-0.6l-2.7,2.7l-5,5c0.1,0.7,0.2,1.4,0.3,2.2
			l5.9-5.9L55.5,18.9z"/>
		<path class="st19" d="M24.6,49.7c0-0.8-0.1-1.5-0.1-2.3l-7,7l-5.4,5.4c0,0.8,0,1.6,0,2.4l6.6-6.6L24.6,49.7z"/>
		<path class="st19" d="M30.2,43c0,0.3,0.1,0.7,0.2,1.1l8.2-8.2c0-0.8,0-1.6,0.1-2.5l-8.5,8.5C30.1,42.3,30.1,42.6,30.2,43z"/>
		<path class="st19" d="M30.8,46c0.2,0.6,0.4,1.2,0.6,1.8l1.2-1.2l6.2-6.2c-0.1-0.7-0.2-1.4-0.2-2.2l-7.2,7.2L30.8,46z"/>
		<path class="st19" d="M56.3,22.9c-0.1-0.7-0.2-1.4-0.4-2l-1.6,1.6l-6.9,6.9c0.1,0.7,0.1,1.5,0.2,2.2l7.9-7.9L56.3,22.9z"/>
		<path class="st19" d="M24.9,54.3c-0.1-0.7-0.1-1.5-0.2-2.2l-4.9,4.9l-7.8,7.8c0,0.8,0,1.6,0,2.4l9-9L24.9,54.3z"/>
		<path class="st19" d="M30.4,31.9c-0.1,0.9-0.2,1.8-0.3,2.7l6.6-6.6l2.9-2.9c0.2-1.2,0.4-2.2,0.6-3l-4.7,4.7L30.4,31.9z"/>
		<path class="st19" d="M24.5,40.2c0-0.8,0-1.7,0.1-2.5l-0.5,0.5L12.7,49.6l-0.5,0.5c0,0.8-0.1,1.6-0.1,2.5l1.7-1.7L24.5,40.2z"/>
		<path class="st19" d="M48.6,16.1c-1.1,0-2.4,0.1-2.7,0.6c-0.2,0.3-0.1,1,0,2l2.3-2.3L48.6,16.1z"/>
		<path class="st19" d="M24.5,45.1c0-0.8,0-1.6,0-2.4L15.1,52l-3,3c0,0.8,0,1.6,0,2.4l4.2-4.2L24.5,45.1z"/>
		<path class="st19" d="M52.8,16.7c-0.6-0.2-1.3-0.3-2-0.4l-1.4,1.4l-3.2,3.2c0.1,0.5,0.2,1.3,0.3,2.1l4.1-4.1L52.8,16.7z"/>
		<path class="st19" d="M30,37.2c0,0.8,0,1.6,0,2.4l8.8-8.8c0.1-0.9,0.2-1.9,0.4-2.8L38,29.1L30,37.2z"/>
		<path class="st19" d="M25.7,24.5c0.1-1,0.3-1.9,0.4-2.8l-9.2,9.2l-3.6,3.6c-0.1,0.9-0.2,1.8-0.3,2.7l5.1-5.1L25.7,24.5z"/>
		<path class="st19" d="M25.1,30c0.1-0.9,0.2-1.8,0.3-2.7l-6.1,6.1l-6.5,6.5c-0.1,0.8-0.1,1.7-0.2,2.6l7.9-7.9L25.1,30z"/>
	</g>
	<g>
		<path class="st20" d="M138,55.9c-1.2,0.8-2.2,1.7-3.1,2.6c-3.8,3.8-6.6,9.5-4.6,13.6c1.1,2.4,4,3.6,6.1,3.5
			c1.9-0.1,3.4-1.3,3.8-2.7c0.3-1.2-0.4-3.5-1.9-3.5c1.1,3-1.7,4.4-3.3,3.5c-2.8-1.6-2.8-5.6,1.2-9.9c0.9-1,1.9-2,3.1-2.9"/>
		<path class="st20" d="M84.5,9.8c0.8-0.8,2.5-2.3,5.5-2.2c3,0.1,4.9,1.3,4.1,3.2c-0.3,0.8-3.1,6-6.3,14.9
			c-2.4,6.7-5.6,15.9-7.3,22.3c-1.3,4.9-2.2,10.8-2.8,13c-0.7,2.7-1.3,3.2-2.8,3.4c-1.7,0.2-3.3-1.9-6.1-8.1
			c-2.3-5-4.6-14.6-5.6-20.2c-0.9-5.3-1.3-10.7-1.4-12.4c0-1.2,0.1-2.5,0.5-3.1c0.8-1.3,6.2-4.6,7.7-4.5c1.2,0.1,1.3,2.6,1.4,5.8
			c0.1,3.3-0.1,10.1,2.2,23.2c0.6-2.1,1.6-11,4.4-19.4C81.2,16.1,83.9,10.5,84.5,9.8z"/>
		<path class="st20" d="M86.9,60.4c-0.8-3.5-0.8-9.5,0.1-13.9c1.4-7.3,3.4-11.4,4.1-12.7c0.8-1.5,1.9-2.4,3.3-2.4
			c1.4,0,3.4,1.2,4.5,2.3c0.8,0.8,0.9,1.7,0.5,2.8c-0.2,0.6-0.9,2-2,4.3c-2.1,4.4-3.7,8.9-4.5,14.2c-0.9,6-0.8,9.5-0.7,10.9
			c0.1,1.4-0.4,2.2-1.4,2C89.3,67.5,87.8,64.2,86.9,60.4z"/>
		<path class="st20" d="M104.1,14.4c-3.1-1.2-6.6,0.7-7.9,4.8c-1.1,3.5,0.7,6.7,3,7.3c2.4,0.7,5.9-0.5,7.4-4.3
			C108.3,18.4,106.4,15.3,104.1,14.4z"/>
		<path class="st20" d="M121.7,9.7c3.5-2.1,9.1-3.5,12.3,0.1c5.3,6.2,2.9,16.2-1,23.3S124.9,42.7,122,44c0,7.2,1,16.6,1.9,23.5
			c0.4,3.1,1.1,6.3,0.7,7.2c-0.3,1-2.6,3-4.7,4c-2.5,1.3-4.1,1.6-5.3-3.3c-1.1-4.4-2.3-15.9-2.9-28.4c-0.3-7.4,0.2-17.8,0.3-20
			c0.1-2.6,0.8-9.4,1.3-10.7C114,14.9,117.9,12,121.7,9.7z M122.1,21c-0.3,2.5-0.6,9.1-0.4,13c1-0.5,4.4-3.3,6.1-7.2
			c2.4-5.6,1.4-9.9-1.2-9.5C124.6,17.7,122.8,19.7,122.1,21z"/>
		<path class="st20" d="M183.7,12.9c3.1-1.1,7.1-1.7,8.9,0.9c2.2,3.2,0.9,11.3-3.4,17.6c-4.3,6.4-8.6,9.5-11.3,10.9
			c-0.5,3.5-0.5,7.7-0.5,10.8c0,3,0.6,8.4,0.2,9.2c-0.6,1.2-2.3,1.9-4,2.1c-2.6,0.3-3.8-0.2-4.3-4.4c-0.6-4.1-0.8-11.2-0.5-18.2
			c0.2-7,1-12.1,1.3-14.2c0.3-1.9,0.8-4.9,1.3-6.1c0.7-1.7,3.2-3.6,4.4-4.4C177.5,15.9,181.3,13.8,183.7,12.9z M179.7,23.5
			c-0.5,2.1-1.1,6.7-1.3,9.9c1-0.5,4.2-3.2,6-6.5c2.2-4,2.8-7.4,0.4-6.9C182.6,20.5,180.6,22.5,179.7,23.5z"/>
		<path class="st20" d="M200.7,60.1c-0.4-3.2-2.2-5.3-3.8-6.7c-1.6-1.4-3.2-2.7-4.2-4.1c-0.4-0.7-0.7-1.4-0.2-2.1
			c0.3-0.4,1.1-0.5,1.5-0.1c0.5,0.5,0.8,1.2,1.2,2.1c0.4,0.8,1.1,1.6,2.1,1.5c0.7-0.1,1.2-0.4,1.6-0.7c0.4-0.4,1-1.1,1.2-1.9
			c0.1-0.7-0.1-2.2-0.9-4.2c-0.7-1.7-1.8-3.4-4.2-4.2c-1.6-0.5-3.2-0.4-4.7,0.7c-1.7,1.1-3.1,3.1-3.7,4.9c-0.7,2-0.9,4.5-0.1,6.6
			c1.1,2.7,4,4.9,5.3,6.6c1.1,1.4,1.3,2.7,0.4,3.5c-1,0.9-2.2,0.5-3.2-1c-1-1.6-1.4-3.7-2.6-3.8c-1-0.1-3.3,1.2-3.9,2.4
			c-0.5,1.4-0.5,7,1.4,9.7c1.8,2.5,4.6,3.9,7.5,3.7c2.7-0.2,5.4-1.8,7.2-4.2C199.8,66.9,201.1,63.1,200.7,60.1z"/>
		<path class="st20" d="M27,13.5c0.3,0.6-0.2,4.1-0.8,8.2c-1.2,7.8-2,18.6-1.4,28.7C25.3,61.7,26.8,68.3,27,69
			c1.7-0.8,11.5-5.1,17.4-7.3c8.6-3.2,12.3-2.9,19.3,1.8c6.3,4.2,16.7,11.2,24.5,10.7c7.8-0.5,13.5-6.2,15-10.2
			c1.3-3.4,0.5-7-1.5-7.4c-2-0.4-2.7,1.9-2.7,2.9c-0.2,0.1-1-1.8-0.3-3.5c0.8-1.8,3.2-3,5.4-2.1c2.2,0.9,4,4.1,3.8,8.2
			c-0.1,3.7-1.3,8-6.2,12.9c-7.7,7.7-19,8.1-27.8,4.4c-8.6-3.7-14.8-9.6-21.4-9.1c-7.5,0.5-17.3,7.3-25.4,13.9
			c-5,4.1-9.3,7.3-10.9,7.1c-1.1-0.8-2-5.5-3-12.2c-1-6.4-1.1-22-0.5-32.9c0.7-14.9,2.8-24.5,3.5-26.2C17.3,18.3,26,12.5,27,13.5z"
			/>
		<path class="st20" d="M56.9,39.2c0.6-5.1,0.2-9.8-0.3-13.9c-0.4-3.5-1.1-6.4-1.4-7.3c-0.2-0.4-1-0.8-1.9-1.1
			c-1-0.4-3.1-0.7-4.4-0.8c-1.2,0-2.8,0-3.1,0.6c-0.2,0.4-0.1,1.4,0.2,3.2c0.3,1.5,1.3,8.8,1.7,15.5c0.3,5.5,0.1,8-0.7,9.8
			c-0.6,1.5-1.8,2.4-3.2,2.5c-1.2,0.1-2.8-0.7-3.9-2.5c-1.3-2.3-1.9-7.5-1.3-13.3c0.5-5.5,2-11.4,2.1-11.9c0.1-0.5,0-1.4-1-1.1
			c-1.5,0.5-6,2.7-7.5,4.6c-0.5,0.9-1.2,3.9-1.6,7.3c-0.5,3.6-0.9,8.1-0.4,12.2c0.4,3.4,2.1,7.7,4.9,10.4c3.4,3.2,7,3.5,10.2,2.9
			c3.3-0.7,6.1-2.8,7.7-5.1C54.8,48.5,56.3,45,56.9,39.2z"/>
		<path class="st20" d="M148.8,55c1-0.1,2,0,2.8,0.3c0.3,0.1,0.6,0.3,0.9,0.5c1.9,1.2,3.8,3.4,5.8,6c2.6,3.5,5.4,7.6,8.6,11.1
			c6.9,7.6,15.3,12.1,23,11.6c10.8-0.7,19-6.8,24.4-12.9c6.7-7.6,15.3-20.4,19.1-33.5c5.5-19.3-1.1-29.3-8.7-29
			c-7.5,0.3-13.1,9.1-10.1,17.1c-0.3-0.3-1.8-4.8-6.8-6c-4.7-1.2-9.8,2.9-9.1,9.9c0.5,4.6,3.3,7.8,5.7,11.9c3.9,6.6,5.5,13.6,4,21.3
			c-1.7,8.5-9.8,15.2-17.6,15.5c-5.5,0.2-12.3-1.5-20.1-8.6c-3.2-2.9-6.9-8.2-10.2-12.4c-0.9-1.2-1.8-2.3-2.7-3.2
			c-0.9-1-2-1.8-3.1-2.4c-2-1-4.3-1.2-6.7-0.8"/>
		<path class="st20" d="M147.9,49.6c0,1,0.1,1.8,0.1,2.5c0.4,3.5,1.6,4.2,2.7,4.3"/>
		<path class="st20" d="M157.8,54.6c0.9,0.9,1.8,2,2.7,3.2c1-2.5,1.8-5.4,2.4-8.3c1.4-6.7,1.7-17.2,1.5-20.8c-0.2-4.7-0.7-5.7-2-5.8
			c-1.4,0-3.9,0.7-4.5,1.2c-0.9,0.6-1,2.3-1,4.7c0,2.5,0.2,6.8-0.3,11.7c-0.3,2.8-0.8,8.2-1.9,11.8l0,0
			C155.8,52.8,156.8,53.6,157.8,54.6z"/>
		<path class="st20" d="M152.6,55.9c-0.5,0.4-1.2,0.6-1.8,0.5c-1.1-0.1-2.3-0.8-2.7-4.3c0-0.2,0-0.4-0.1-0.6h0h0
			c-0.3-3.4,0.1-9.8,0.8-14.2c0.7-4.5,1.8-8.2,2.4-10.4c1.1-4.1,2.1-7.4,2.3-7.9c0.1-0.5,0-1-0.3-1.4c-0.4-0.4-0.9-0.8-1.5-1
			c-1-0.4-2.6-1.1-4.1-1.1c-1.5-0.1-2.3,0.6-2.8,1.8c-0.5,1.1-3.5,9.2-5.1,16.1c-1.5,6.7-2.2,17.8-1.6,22.3
			c0.7,5.3,3.5,9.9,9.1,11.2c4.3,0.9,8.4-0.9,10.9-4.4c0.1-0.1,0.2-0.3,0.3-0.5l0,0C156.4,59.3,154.5,57.1,152.6,55.9z"/>
	</g>
</g>
</svg>
