<?xml version="1.0" encoding="utf-8"?>
<!-- Generator: Adobe Illustrator 23.0.2, SVG Export Plug-In . SVG Version: 6.00 Build 0)  -->
<svg version="1.1" id="Layer_1" xmlns="http://www.w3.org/2000/svg" xmlns:xlink="http://www.w3.org/1999/xlink" x="0px" y="0px"
	 viewBox="0 0 253.1 110" style="enable-background:new 0 0 253.1 110;" xml:space="preserve">
<style type="text/css">
	.st0{fill:none;}
	.st1{fill:#0033A1;}
	.st2{font-family:'Helvetica';}
	.st3{font-size:6.2096px;}
	.st4{fill:url(#SVGID_1_);}
	.st5{fill:url(#SVGID_2_);}
	.st6{fill:url(#SVGID_3_);}
	.st7{fill:url(#SVGID_4_);}
	.st8{fill:#F3E85C;}
	.st9{fill:url(#SVGID_5_);}
	.st10{fill:url(#SVGID_6_);}
	.st11{fill:url(#SVGID_7_);}
	.st12{fill:url(#SVGID_8_);}
	.st13{fill:url(#SVGID_9_);}
	.st14{fill:url(#SVGID_10_);}
	.st15{fill:url(#SVGID_11_);}
	.st16{fill:url(#SVGID_12_);}
	.st17{fill:url(#SVGID_13_);}
	.st18{fill:url(#SVGID_14_);}
	.st19{fill:url(#SVGID_15_);}
	.st20{opacity:0.3;}
	.st21{fill:#FFFFFF;}
	.st22{fill:#F44C7F;}
	.st23{fill:none;stroke:#FFFFFF;stroke-width:0.774;stroke-linecap:round;stroke-linejoin:round;stroke-miterlimit:10;}
</style>
<g>
	<rect x="240.7" y="23.5" class="st0" width="24.2" height="13"/>
	<text transform="matrix(1 0 0 1 240.7136 27.9272)" class="st1 st2 st3">TM</text>
	<g>
		<path class="st1" d="M238,23.2c-0.5-5.8-2.4-9.4-4-11.4c-2.6-3.2-6.1-4.9-9.9-4.8c-4.5,0.2-8.6,2.6-11.3,6.6
			c-1,1.6-1.8,3.3-2.2,5.1c-0.7-0.3-1.5-0.6-2.2-0.8c-3.2-0.8-6.5,0-9.1,2.2c-0.7,0.6-1.3,1.2-1.8,2c-0.1-1.1-0.3-2.1-0.6-3
			c0-2.3-0.5-4.5-1.6-6.1c-1.6-2.4-5.1-4.7-12.6-2.2c0,0,0,0,0,0c-2.8,1-6.9,3.3-8.6,4.5c-1.9,1.3-4.4,3.4-5.5,5.8
			c-0.4,0.8-0.7,2.1-1,3.9c-0.5-2.5-1.7-4.5-4.8-4.6c-1.5-0.1-3.8,0.5-5.4,1.2c-0.1-0.2-0.3-0.5-0.4-0.7l0-0.1
			c0.4-1.6,0.1-3.2-0.9-4.4c-0.7-0.8-1.6-1.5-2.8-2c-1.6-0.7-3.3-1.3-5.2-1.4c-2.8-0.1-4.9,1.2-6,3.7c-0.2,0.4-0.5,1.3-1,2.6
			c0-0.2-0.1-0.3-0.1-0.5c-0.2-4-1.5-7.4-3.8-10.1C133,4,126,4.9,120.9,8c-3.1,1.8-8.4,5.4-9.5,8.3c-0.1,0.2-0.2,0.5-0.3,0.8
			c0-0.1-0.1-0.3-0.1-0.4c-0.9-2-2.5-3.6-4.5-4.3h0c-2.2-0.8-4.7-0.7-6.8,0.4c-0.2,0.1-0.4,0.2-0.6,0.3c-0.1-0.1-0.1-0.2-0.2-0.4
			c0-0.1-0.1-0.1-0.1-0.2c0.4-1.4,0.2-2.9-0.6-4.2c-1.2-1.8-3.5-2.9-6.6-3c-4.3-0.1-6.8,2.2-7.8,3.1c0,0,0,0,0,0
			c-2,1.9-5.5,11.8-6.8,15.6c-0.1-0.7-0.1-1.3-0.2-1.9c-0.1-0.5-0.2-0.9-0.4-1.3c-0.1-1.1-0.1-2.1-0.3-3c-0.7-3.6-3.1-4.1-4.1-4.2
			c-3.1-0.2-9.4,4-10.6,5.9c-0.1,0.2-0.2,0.4-0.3,0.6c-0.2-1-0.4-1.8-0.6-2.3c0-0.2-0.1-0.3-0.2-0.5c-0.7-1.6-2.4-2.3-3.7-2.8
			c-1.4-0.5-3.8-0.9-5.4-0.9c-1.6,0-5-0.1-6.1,2.6c-0.1,0.3-0.2,0.6-0.3,0.8c-1-0.8-2.4-1-3.8-0.6c-1.1,0.4-5,2-7.6,4.2
			c0.2-2,0.1-2.8-0.3-3.5c-0.1-0.2-0.3-0.5-0.4-0.7c0.2-2,0.1-2.8-0.3-3.6c-0.2-0.4-0.4-0.7-0.7-1c-0.8-0.8-1.8-1.1-2.9-1.1
			c-3.4,0.2-11.4,5.9-12.9,7.8c-0.2,0.2-0.4,0.5-0.5,0.8c-0.9,2.2-3,12.4-3.7,26.9c-0.5,10.7-0.5,26.4,0.5,33.1
			c0.9,5.8,1.6,9.1,2.3,11.2c1,4.7,1.8,6.2,3,7c0.5,0.3,1,0.5,1.6,0.6c0.1,0,0.2,0,0.4,0c2.1,0,4.8-1.4,12.6-7.7
			c12.6-10.3,19.6-12.7,23.3-13c3.3-0.2,6.9,1.9,11.1,4.3c2.5,1.4,5.4,3.1,8.5,4.4c10.9,4.7,23,2.7,30.8-5c2.9-2.9,4.8-5.8,5.9-9
			c0.3,1.6,0.5,3,0.8,4c0.2,0.7,0.4,1.4,0.7,2.1c0.2,0.8,0.3,1.5,0.5,2.1c0.6,2.2,1.5,4.9,3.9,5.9c0.7,0.3,1.4,0.4,2,0.4
			c1.6,0,2.9-0.7,3.8-1.1c1.4-0.7,5.3-3.2,6.1-5.8c0.1-0.4,0.2-0.9,0.2-1.4c2,3,5.7,4.4,8.5,4.2c3.1-0.2,5.7-2.2,6.5-4.9
			c0.4-1.4,0.2-3.2-0.6-4.6c0-0.2,0.1-0.4,0.1-0.6c1.1,0.6,2.4,1.1,3.7,1.4c0.9,0.2,1.9,0.3,2.8,0.3c3.2,0,6.2-1.1,8.7-3.2
			c0,0,0.1,0.1,0.1,0.1c2,2.7,4,5.5,6.3,8c7.3,8,15.8,12.5,23.8,12.5c0.5,0,0.9,0,1.4,0c12.3-0.8,21-7.9,26.2-13.8
			c6.9-7.8,15.7-20.9,19.5-34.2C239.3,34.6,239.1,27.9,238,23.2z M85.1,61.5L85.1,61.5c0.2,1,0.5,2.2,0.9,3.2
			c0.1,0.3,0.1,0.6,0.2,0.9c0.5,2.3,1.2,4,1.8,5.4c-1.9-0.1-4-0.7-6.1-1.6c0.6-1,0.9-2.1,1.2-3.1c0.2-0.9,0.5-2.3,0.8-4
			c0.2-1.1,0.4-2.3,0.7-3.5C84.7,59.8,84.9,60.7,85.1,61.5z M97.4,67.9c0-1.1,0.1-2.3,0.2-3.5c0.2,0.7,0.6,1.4,1,1.8
			c0.1,0.1,0.2,0.2,0.3,0.3C98.5,66.9,98,67.4,97.4,67.9z M95.1,26.9c0,0.7,0.1,1.3,0.3,2c-0.4,0-0.8,0.1-1.3,0.2
			c0.3-0.8,0.6-1.6,0.9-2.3C95,26.8,95,26.8,95.1,26.9z M36,60.3c0.6,0.6,1.3,1.1,1.9,1.5c-2.2,0.9-4.3,1.8-6.1,2.6
			c-0.3-2.6-0.6-5.8-0.8-9.5c-0.1-1.2-0.1-2.5-0.1-3.8C31.7,54.3,33.3,57.8,36,60.3z M62.8,43.4c0.5,2.2,1.1,4.6,1.8,6.9
			c1,4.1,2.3,8.4,3.7,11.5c-0.3-0.2-0.7-0.4-1-0.7l-0.1-0.1c-3.1-2.1-5.8-3.4-8.5-4c2.2-3.3,3.4-7.3,4-12.5
			C62.8,44.1,62.8,43.8,62.8,43.4z M106.3,51.3c-1.9-0.8-4.1-0.7-5.9,0.1c0.5-1.5,1.2-2.9,1.9-4.4l0.3-0.6c1.1-2.4,1.6-3.3,1.8-4
			c0.6-1.8,0.4-3.5-0.5-5c0.2-0.9,0.2-1.8,0-2.6c2-0.3,4.1-1.3,5.7-3.1c-0.2,4.2-0.3,10.9-0.1,16.2c0.1,2.2,0.2,4.3,0.3,6.3
			C109,53,107.7,51.9,106.3,51.3z M46.5,36.4c0.3,4.5,0.1,6.9-0.4,8.2c-0.1,0.1-0.2,0.4-0.4,0.5c-0.1-0.1-0.5-0.3-0.7-0.8
			c-0.1-0.2-0.2-0.5-0.3-0.9c-0.1-1.7-0.1-3.7,0.1-6.1c0.2-2.7,0.7-5.6,1.2-7.7C46.2,31.7,46.4,34.1,46.5,36.4z M180.1,70.1
			c0.2,1.2,0.5,2.4,0.9,3.5c-1.1-0.6-2.3-1.2-3.4-2C178.5,71.2,179.4,70.7,180.1,70.1z M204.8,63.1c-0.1,0.4-0.2,0.9-0.3,1.3
			c0,0,0,0,0,0c-0.1-0.9-0.3-1.7-0.6-2.6c0-0.6,0-1.1-0.1-1.7c0,0,0,0,0,0c-0.2-1.4-0.6-2.8-1.2-4.1c0.5-0.7,1-1.6,1.2-2.6
			c0.1-0.7,0.1-1.4,0-2.3c0.4,0.9,0.8,1.9,1.2,2.8C205.4,56.9,205.4,60,204.8,63.1z M183.3,53.7c0.1,0.3,0.2,0.5,0.4,0.8
			c0,0.2,0,0.3,0,0.5c-0.8,0.3-1.5,0.8-2.2,1.3c0-2.2,0.1-4.7,0.3-7.1c0.2-0.1,0.4-0.3,0.7-0.4C182.4,50.5,182.7,52.2,183.3,53.7z
			 M135.5,42.6c-0.4,4.5-0.6,9.1-0.4,12.2c-0.7,0.6-1.4,1.1-1.9,1.7c-2.1,2.1-4.2,5-5.3,8c-0.5-5.1-0.9-9.9-1-13.9
			C129.6,49.3,132.7,47,135.5,42.6z M196.4,35.9c0.1,0.6,0.2,1.1,0.3,1.7c-0.3-0.1-0.7-0.3-1-0.4c-0.7-0.2-1.5-0.3-2.2-0.4
			c0.8-1.3,1.4-2.6,2-4C195.7,33.9,196,34.9,196.4,35.9z"/>
		<g>
			<linearGradient id="SVGID_1_" gradientUnits="userSpaceOnUse" x1="221.7492" y1="6.2756" x2="247.3677" y2="13.2624">
				<stop  offset="0" style="stop-color:#F38CB4"/>
				<stop  offset="0.1445" style="stop-color:#E884B1"/>
				<stop  offset="0.3913" style="stop-color:#D274AB"/>
				<stop  offset="0.7079" style="stop-color:#B05AA1"/>
				<stop  offset="1" style="stop-color:#904299"/>
			</linearGradient>
			<path class="st4" d="M233.1,7c0.7-0.4,2.1-0.7,3.1-0.4c1,0.3,2,1,2.6,1.9c0.7,1,0.9,2.1,0.9,3.1c-0.1,1-0.6,2.1-1.3,2.8
				c-0.2,0.2-0.3,0.1-0.3,0c0-0.2,0-0.7-0.1-1.1c0-0.4-0.1-0.8-0.2-1.2c-0.2-0.8-0.4-1.6-0.9-2.3c-0.4-0.6-1-1.2-1.9-1.8
				c-0.8-0.5-1.7-0.7-1.9-0.7C233,7.2,233,7.1,233.1,7z"/>
			<linearGradient id="SVGID_2_" gradientUnits="userSpaceOnUse" x1="221.3885" y1="7.5979" x2="247.007" y2="14.5848">
				<stop  offset="0" style="stop-color:#F38CB4"/>
				<stop  offset="0.1445" style="stop-color:#E884B1"/>
				<stop  offset="0.3913" style="stop-color:#D274AB"/>
				<stop  offset="0.7079" style="stop-color:#B05AA1"/>
				<stop  offset="1" style="stop-color:#904299"/>
			</linearGradient>
			<path class="st5" d="M243.3,6.3c0.7,0.2,3.6,3.3,2.5,7.7c-0.9,3.7-3.8,5.6-4.7,6c-0.6,0.3-1.1,0-0.9-0.1c0.2-0.2,0.5-0.5,0.5-0.5
				s2.3-2.6,3-5.4c0.7-2.9,0.3-4.7,0.1-5.8c-0.2-0.6-0.5-1.3-0.7-1.5C242.9,6.6,243,6.2,243.3,6.3z"/>
		</g>
		<g>
			<linearGradient id="SVGID_3_" gradientUnits="userSpaceOnUse" x1="4.5946" y1="92.2017" x2="18.1575" y2="97.5089">
				<stop  offset="0" style="stop-color:#F38CB4"/>
				<stop  offset="0.1445" style="stop-color:#E884B1"/>
				<stop  offset="0.3913" style="stop-color:#D274AB"/>
				<stop  offset="0.7079" style="stop-color:#B05AA1"/>
				<stop  offset="1" style="stop-color:#904299"/>
			</linearGradient>
			<path class="st6" d="M14.2,100.1c0-0.2-0.9-0.7-2.3-3.1c-1.1-1.9-1.6-3.9-1.8-5.6c-0.1-1.1-0.1-1.7-0.3-1.9
				c-0.2-0.2-1.3,1.3-1.6,3.4c-0.3,2.5,0.9,4.8,2.7,6.1C12.7,100.4,14.2,100.4,14.2,100.1z"/>
			<linearGradient id="SVGID_4_" gradientUnits="userSpaceOnUse" x1="1.9983" y1="98.8367" x2="15.5612" y2="104.1439">
				<stop  offset="0" style="stop-color:#F38CB4"/>
				<stop  offset="0.1445" style="stop-color:#E884B1"/>
				<stop  offset="0.3913" style="stop-color:#D274AB"/>
				<stop  offset="0.7079" style="stop-color:#B05AA1"/>
				<stop  offset="1" style="stop-color:#904299"/>
			</linearGradient>
			<path class="st7" d="M4.8,96.8c1,3.9,2.8,5.4,5.4,6c3,0.8,5.9,0.2,6.4,0s0.6,0.2,0,0.8c-0.6,0.6-4.3,3-8.6,0.9
				C4.1,102.7,4,98,4.1,97C4.1,96.2,4.6,96.1,4.8,96.8z"/>
		</g>
		<g>
			<path class="st8" d="M232.9,12.7c-2.3-2.9-5.4-4.4-8.7-4.2c-4,0.2-7.7,2.4-10.1,6c-1.3,2-2.1,4.3-2.4,6.6c-1-0.7-2.2-1.3-3.6-1.6
				c-2.7-0.7-5.6,0-7.8,1.9c-2.6,2.3-3.9,5.8-3.5,9.8c0.4,3.9,2.3,6.8,4.2,9.9c0.5,0.8,1.1,1.7,1.6,2.6c3.8,6.5,5,13,3.7,19.7
				c-1.5,7.3-8.4,13.5-15.5,13.8c-6.2,0.2-12.3-2.4-18.5-8c-2.2-2-4.7-5.3-7.2-8.6c-0.7-0.9-1.4-1.8-2-2.6c0.9-2.5,1.6-5.1,2-7.5
				c1.4-6.6,1.7-17,1.5-21c-0.2-3.6-0.4-7.4-3.8-7.5c-1.6-0.1-4.6,0.8-5.7,1.6c-1.6,1.2-1.7,3.5-1.7,6.1c0,0.4,0,0.9,0,1.5
				c0,2.5,0.1,6-0.3,9.9c-0.4,3.9-0.8,7-1.3,9.3c-1.1-0.3-2.2-0.4-3.4-0.4c0-3.4,0.3-8.2,0.8-11.6c0.6-4.1,1.6-7.4,2.2-9.6l0.1-0.4
				c0.9-3.3,1.7-6.1,2.1-7.3l0.2-0.5c0.3-1.1,0.1-2.2-0.7-3.1c-0.5-0.6-1.3-1.2-2.2-1.5c-1-0.4-2.9-1.2-4.7-1.3
				c-2.2-0.1-3.7,0.9-4.6,2.9c-0.5,1.2-3.5,9.3-5.1,16.3c-1.4,6.2-2.2,16.6-1.7,21.8c-0.9,0.7-1.7,1.4-2.4,2.1
				c-3.9,3.9-7.5,10.3-4.9,15.5c1.5,3.2,5.2,4.7,7.8,4.5c2.6-0.2,4.8-1.8,5.4-4c0.4-1.3,0-3.1-0.9-4.3c-0.7-1-1.7-1.5-2.8-1.5
				c-0.6,0-1.2,0.3-1.6,0.8c-0.4,0.5-0.5,1.2-0.2,1.8c0.1,0.3,0.2,0.8,0,1c-0.2,0.2-0.5,0.2-0.6,0.1c-0.5-0.3-0.9-0.8-1-1.4
				c-0.2-1.4,0.7-3.5,2.6-5.5c0.4-0.4,0.7-0.8,1.1-1.1c1.9,2.8,4.6,4.8,8,5.5c0.9,0.2,1.8,0.3,2.6,0.3c3.3,0,6.4-1.3,8.8-3.8
				c0.3,0.4,0.6,0.8,0.9,1.2c2,2.7,4,5.5,6.2,7.9c7,7.7,15.3,12.1,22.9,12.1c0.4,0,0.9,0,1.3,0c11.9-0.8,20.3-7.7,25.4-13.4
				c6.8-7.7,15.5-20.6,19.2-33.8C237.9,28,237.2,18.2,232.9,12.7z"/>
			<path class="st8" d="M63.1,37.2c0.9,5.3,3.2,15.1,5.7,20.4c2.8,6,4.7,9.1,7.5,9.1c0.1,0,0.3,0,0.4,0c2.7-0.3,3.6-1.9,4.4-4.7
				c0.2-0.9,0.5-2.2,0.8-3.9c0.5-2.6,1.1-5.9,1.9-8.8c1.7-6.4,4.9-15.7,7.2-21.8c2.5-7,4.8-11.6,5.8-13.6c0.2-0.5,0.4-0.8,0.5-1
				c0.5-1.2,0.4-2.5-0.3-3.5C96,7.8,94.1,7,91.5,6.9c-3.7-0.1-5.8,1.9-6.8,2.7c0,0,0,0,0,0c-1.4,1.3-4.5,9.3-6.9,16.4
				c-0.9,2.8-1.7,5.6-2.2,8.2c-0.4-4.3-0.5-7.4-0.6-9.6c0-0.7,0-1.3-0.1-1.9l0-0.5c-0.1-3.5-0.3-6.8-3.1-7c-2.4-0.2-8.2,3.6-9.3,5.3
				c-0.6,0.9-0.9,2.3-0.8,4.2C61.7,26.2,62.1,31.6,63.1,37.2z"/>
			<path class="st8" d="M100.4,42.3l0.3-0.6c1.1-2.2,1.6-3.3,1.8-3.8c0.6-1.8,0.2-3.6-1-4.8c-1.1-1.1-3.6-2.7-5.7-2.8
				c-1.4,0-3.4,0.5-4.9,3.3c-0.6,1.1-2.8,5.4-4.3,13.1c-0.9,4.6-0.9,10.9,0,14.5l0,0c1.7,7.2,4.3,8.5,5.3,8.8C92,70,92.3,70,92.5,70
				c0.7,0,1.3-0.2,1.8-0.7c0.6-0.5,1.2-1.5,1.1-3.4c-0.2-2.8,0-6.2,0.7-10.3C96.9,51.1,98.2,46.8,100.4,42.3z"/>
			<path class="st8" d="M96.4,26.2c0.8,1.5,2.2,2.7,3.6,3.1c0.6,0.2,1.2,0.3,1.9,0.3c2.9,0,6.2-1.7,7.7-5.6c0.9-2.3,1-4.7,0.1-6.7
				c-0.7-1.7-2.1-3-3.7-3.6h0c-1.9-0.7-3.9-0.6-5.7,0.3c-2.1,1.1-3.7,3.1-4.5,5.6C95.1,21.9,95.3,24.3,96.4,26.2z"/>
			<path class="st8" d="M126.8,67.6c-1.1-7.9-1.8-15.9-1.9-21.7c3.2-1.6,7.1-4.5,10.5-11c2.2-4.2,3.7-8.6,4.1-12.6
				c0.5-5.1-0.6-9.4-3.4-12.6c-3.6-4.2-9.9-3.3-14.5-0.5c-1.8,1.1-7.9,4.9-8.9,7.6c-0.7,1.8-1.4,9.2-1.4,11.2c0,0.3,0,0.8-0.1,1.5
				c-0.1,3.6-0.5,12.1-0.2,18.3c0.6,12.4,1.7,23.8,2.9,28.3c0.5,2,1.3,4.3,3.2,5.2c0.5,0.2,1,0.3,1.5,0.3c1.1,0,2.2-0.5,3.2-1
				c1.9-1,4.9-3.2,5.5-5.1c0.4-1.1,0.1-2.8-0.3-5.8C127,69.1,126.9,68.3,126.8,67.6z M124.4,30.7c0-3.1,0.2-6.3,0.4-8
				c0.7-1.1,1.9-2.2,2.8-2.4c0.3,0.5,0.8,2.8-0.9,6.7C126.2,28.4,125.3,29.7,124.4,30.7z"/>
			<path class="st8" d="M173,66.8c0.3,0,0.7,0,1.1-0.1c2.6-0.3,4.6-1.4,5.4-3.1c0.4-0.9,0.4-2.3,0.2-6c-0.1-1.4-0.2-2.8-0.2-3.9
				c0-2.6,0-6.2,0.4-9.4c2.6-1.5,6.8-4.7,10.9-10.9c4.5-6.8,6-15.5,3.3-19.5c-1.3-2-4.3-3.9-10.9-1.6c-2.7,0.9-6.6,3.2-8.3,4.4
				c-1.7,1.2-4.1,3.1-5,5.2c-0.5,1.1-0.9,3.1-1.4,6.5l0,0.3c-0.3,2.2-1.1,7.2-1.3,13.9c-0.2,7.2,0,14.2,0.5,18.3
				C168.3,65.1,169.8,66.8,173,66.8z M180.8,29.7c0.2-1.7,0.5-3.3,0.7-4.3c0.7-0.7,1.7-1.6,2.8-2.1c-0.2,0.8-0.6,2.1-1.6,3.7
				C182.2,27.9,181.5,28.9,180.8,29.7z"/>
			<path class="st8" d="M201.8,49c0.3-1.6-0.4-3.7-1-5.2c-0.4-1-1.7-4.1-5.4-5.2c-2.3-0.7-4.4-0.4-6.3,0.9c-1.9,1.3-3.6,3.5-4.4,5.8
				c-0.9,2.7-1,5.6,0,7.9c0.4,1,1,1.9,1.6,2.7c-1.9,0-4.6,1.7-5.5,3.4c0,0.1-0.1,0.1-0.1,0.2c-0.7,1.8-0.7,8,1.6,11.3
				c2,2.8,5.1,4.5,8.3,4.5c0.3,0,0.5,0,0.8,0c3.1-0.3,6.3-2.1,8.4-4.9c1.7-2.2,3.2-6.4,2.8-10c-0.3-2.8-1.7-5.3-3.9-7.4
				c0.7-0.3,1.2-0.6,1.5-1C200.6,51.4,201.5,50.3,201.8,49z"/>
			<path class="st8" d="M105.8,52.6c-3.2-1.4-6.7,0.5-7.8,3.1c-0.9,2.1-0.2,4.6,0.6,5.4c0.6,0.6,1.4,0.8,2.1,0.5
				c0.7-0.3,1.2-1,1.2-1.8c0-0.3,0.2-0.8,0.4-1c0,0,0,0,0,0c0.4,0.2,1.1,2.2,0.1,4.8c-1.3,3.4-6.5,8.4-13.1,8.8
				c-7,0.4-17-6.2-22.9-10.2l-0.1-0.1c-7.4-4.9-11.6-5.3-20.7-1.9c-4.6,1.7-11.4,4.6-15.1,6.3c-0.5-2.7-1.3-8-1.7-15.7
				c-0.5-8.4,0-18.8,1.4-27.9c1.1-7,1.1-8.2,0.7-9.1c-0.1-0.2-0.2-0.4-0.4-0.6c-0.3-0.3-0.9-0.7-1.8-0.7c-2.9,0.1-10.6,5.6-11.9,7.2
				c-0.1,0.1-0.2,0.3-0.3,0.5c-0.9,2.2-2.9,12.1-3.6,26.5c-0.5,10.7-0.5,26.2,0.5,32.8c1.5,10,2.5,12.3,3.8,13.2
				c0.3,0.2,0.6,0.3,1,0.4c0.1,0,0.2,0,0.2,0c1.7,0,4.4-1.4,11.9-7.5c10.3-8.4,18.4-12.9,24-13.3c3.6-0.3,7.4,1.9,11.8,4.4
				c2.5,1.4,5.3,3,8.4,4.4c8,3.4,20.5,4.2,29.4-4.7c4.3-4.3,6.5-8.9,6.7-14C110.9,57.9,108.9,53.9,105.8,52.6z"/>
			<path class="st8" d="M30.6,43.9c0.4,3.4,2.1,8.2,5.4,11.4c2.6,2.4,5.5,3.6,8.7,3.6c1,0,2-0.1,3-0.3c3.5-0.7,6.8-2.9,8.8-5.8
				c2.3-3.3,3.6-7.3,4.2-12.6c0.6-5.6,0.1-10.7-0.3-14.1c-0.4-3.3-1.1-6.4-1.4-7.5c0-0.1-0.1-0.2-0.1-0.3c-0.4-0.9-1.3-1.5-2.9-2.1
				c-1.2-0.5-3.5-0.8-5-0.9c-1.4,0-4-0.1-4.8,1.8c-0.4,1-0.3,2.1,0.1,4.2c0.3,1.5,1.3,8.6,1.7,15c0.3,4.8,0.1,7.3-0.5,8.8
				c-0.2,0.5-0.7,1.3-1.6,1.3c-0.4,0-1.4-0.3-2-1.5c-0.9-1.6-1.6-6-1.1-12c0.4-4.5,1.5-9.1,1.9-10.8c0.1-0.4,0.1-0.6,0.2-0.7
				c0.2-1.1-0.1-2.1-0.8-2.8c-0.4-0.3-1.3-0.9-2.6-0.4c-1.6,0.5-6.4,2.8-8.3,5.2c-0.1,0.1-0.1,0.2-0.2,0.3c-0.7,1.3-1.4,4.9-1.8,7.8
				C30.5,34.7,30.1,39.6,30.6,43.9z"/>
		</g>
		<g>
			<linearGradient id="SVGID_5_" gradientUnits="userSpaceOnUse" x1="63.5643" y1="36.7603" x2="101.2083" y2="36.7603">
				<stop  offset="0" style="stop-color:#F38CB4"/>
				<stop  offset="0.1445" style="stop-color:#E884B1"/>
				<stop  offset="0.3913" style="stop-color:#D274AB"/>
				<stop  offset="0.7079" style="stop-color:#B05AA1"/>
				<stop  offset="1" style="stop-color:#904299"/>
			</linearGradient>
			<path class="st9" d="M86,11c0.8-0.8,2.5-2.3,5.4-2.2s4.8,1.3,4,3.2c-0.3,0.7-3.1,6-6.2,14.7c-2.4,6.6-5.5,15.7-7.2,21.9
				c-1.3,4.9-2.2,10.6-2.8,12.8c-0.7,2.6-1.3,3.2-2.8,3.4c-1.6,0.2-3.2-1.9-6-8c-2.3-4.9-4.5-14.4-5.5-19.9
				c-0.9-5.3-1.3-10.5-1.4-12.2c0-1.2,0.1-2.4,0.5-3.1c0.8-1.3,6.1-4.5,7.6-4.4c1.2,0.1,1.2,2.6,1.4,5.7c0.1,3.3-0.1,9.9,2.2,22.9
				c0.6-2,1.6-10.9,4.3-19.2C82.8,17.2,85.4,11.6,86,11z"/>
			<linearGradient id="SVGID_6_" gradientUnits="userSpaceOnUse" x1="88.5336" y1="49.3488" x2="104.6011" y2="51.6859">
				<stop  offset="0" style="stop-color:#F38CB4"/>
				<stop  offset="0.1445" style="stop-color:#E884B1"/>
				<stop  offset="0.3913" style="stop-color:#D274AB"/>
				<stop  offset="0.7079" style="stop-color:#B05AA1"/>
				<stop  offset="1" style="stop-color:#904299"/>
			</linearGradient>
			<path class="st10" d="M88.3,60.8c-0.8-3.4-0.8-9.3,0.1-13.7c1.4-7.2,3.3-11.3,4-12.5c0.8-1.5,1.9-2.4,3.2-2.3
				c1.4,0,3.3,1.2,4.5,2.3c0.8,0.7,0.9,1.7,0.5,2.8c-0.2,0.5-0.9,2-1.9,4.2c-2.1,4.3-3.6,8.7-4.4,13.9c-0.9,5.9-0.8,9.3-0.7,10.7
				c0.1,1.4-0.4,2.2-1.4,2C90.7,67.8,89.2,64.5,88.3,60.8z"/>
			<linearGradient id="SVGID_7_" gradientUnits="userSpaceOnUse" x1="92.804" y1="19.9897" x2="108.8715" y2="22.3268">
				<stop  offset="0" style="stop-color:#F38CB4"/>
				<stop  offset="0.1445" style="stop-color:#E884B1"/>
				<stop  offset="0.3913" style="stop-color:#D274AB"/>
				<stop  offset="0.7079" style="stop-color:#B05AA1"/>
				<stop  offset="1" style="stop-color:#904299"/>
			</linearGradient>
			<path class="st11" d="M105.4,15.5c-3.1-1.1-6.5,0.7-7.8,4.7c-1,3.4,0.7,6.6,2.9,7.2c2.4,0.7,5.8-0.5,7.3-4.2
				C109.4,19.4,107.6,16.4,105.4,15.5z"/>
			<linearGradient id="SVGID_8_" gradientUnits="userSpaceOnUse" x1="138.4366" y1="41.8455" x2="171.9069" y2="41.8455">
				<stop  offset="0" style="stop-color:#F38CB4"/>
				<stop  offset="0.1445" style="stop-color:#E884B1"/>
				<stop  offset="0.3913" style="stop-color:#D274AB"/>
				<stop  offset="0.7079" style="stop-color:#B05AA1"/>
				<stop  offset="1" style="stop-color:#904299"/>
			</linearGradient>
			<path class="st12" d="M138.7,56.1c-0.6-4.5,0.1-15.4,1.5-22c1.5-6.9,4.5-14.8,5-15.9c0.5-1.2,1.3-1.8,2.8-1.7
				c1.5,0.1,3.1,0.7,4.1,1.1c0.6,0.3,1.1,0.6,1.5,1c0.3,0.4,0.4,0.9,0.3,1.4c-0.1,0.5-1.1,3.7-2.2,7.8c-0.6,2.2-1.6,5.8-2.3,10.3
				c-0.7,4.6-1,11.5-0.7,14.6c0.4,3.5,1.6,4.1,2.7,4.2c1.4,0.2,2.6-1,3.2-2.2c1.4-3.2,2.2-10.2,2.5-13.5c0.5-4.8,0.3-9.1,0.3-11.5
				c0-2.3,0.1-3.9,0.9-4.6c0.6-0.5,3.1-1.2,4.5-1.2s1.8,1.1,2,5.7c0.2,3.6-0.1,13.9-1.5,20.5c-1,4.8-2.4,9.5-4.7,12.7
				c-2.5,3.4-6.5,5.2-10.8,4.3C142.1,65.9,139.4,61.2,138.7,56.1z"/>
			<linearGradient id="SVGID_9_" gradientUnits="userSpaceOnUse" x1="112.8192" y1="44.2633" x2="137.7425" y2="44.2633">
				<stop  offset="0" style="stop-color:#F38CB4"/>
				<stop  offset="0.1445" style="stop-color:#E884B1"/>
				<stop  offset="0.3913" style="stop-color:#D274AB"/>
				<stop  offset="0.7079" style="stop-color:#B05AA1"/>
				<stop  offset="1" style="stop-color:#904299"/>
			</linearGradient>
			<path class="st13" d="M122.6,10.8c3.4-2.1,9-3.5,12.1,0.1c5.3,6.1,2.8,15.9-1,23c-3.8,7.1-7.9,9.4-10.8,10.7
				c0,7.1,1,16.3,1.9,23.2c0.4,3.1,1.1,6.2,0.7,7.1c-0.3,1-2.6,2.9-4.6,4c-2.4,1.3-4,1.6-5.3-3.3c-1.1-4.3-2.3-15.6-2.8-27.9
				c-0.3-7.3,0.2-17.5,0.3-19.7c0.1-2.5,0.8-9.2,1.3-10.6C115.1,16,118.9,13.1,122.6,10.8z M123,22c-0.3,2.5-0.6,9-0.4,12.8
				c1-0.5,4.3-3.2,6-7.1c2.4-5.6,1.3-9.8-1.1-9.3C125.5,18.7,123.8,20.7,123,22z"/>
			<linearGradient id="SVGID_10_" gradientUnits="userSpaceOnUse" x1="168.9498" y1="39.0141" x2="194.3997" y2="39.0141">
				<stop  offset="0" style="stop-color:#F38CB4"/>
				<stop  offset="0.1445" style="stop-color:#E884B1"/>
				<stop  offset="0.3913" style="stop-color:#D274AB"/>
				<stop  offset="0.7079" style="stop-color:#B05AA1"/>
				<stop  offset="1" style="stop-color:#904299"/>
			</linearGradient>
			<path class="st14" d="M183.8,14c3.1-1.1,7-1.7,8.8,0.9c2.1,3.2,0.9,11.1-3.3,17.4c-4.2,6.3-8.4,9.4-11.1,10.8
				c-0.5,3.4-0.5,7.6-0.5,10.6c0,2.9,0.6,8.3,0.2,9.1c-0.6,1.2-2.2,1.9-3.9,2c-2.6,0.3-3.7-0.2-4.3-4.4c-0.6-4-0.7-11.1-0.5-18
				c0.2-6.9,1-11.9,1.3-14c0.3-1.9,0.8-4.8,1.3-6.1c0.7-1.7,3.2-3.5,4.3-4.4C177.6,17,181.4,14.9,183.8,14z M179.8,24.4
				c-0.5,2.1-1.1,6.6-1.3,9.8c1-0.5,4.1-3.2,5.9-6.4c2.2-3.9,2.7-7.3,0.4-6.8C182.7,21.5,180.7,23.4,179.8,24.4z"/>
			<linearGradient id="SVGID_11_" gradientUnits="userSpaceOnUse" x1="181.5461" y1="56.729" x2="203.4601" y2="56.729">
				<stop  offset="0" style="stop-color:#F38CB4"/>
				<stop  offset="0.1445" style="stop-color:#E884B1"/>
				<stop  offset="0.3913" style="stop-color:#D274AB"/>
				<stop  offset="0.7079" style="stop-color:#B05AA1"/>
				<stop  offset="1" style="stop-color:#904299"/>
			</linearGradient>
			<path class="st15" d="M200.5,60.5c-0.4-3.1-2.1-5.2-3.7-6.6c-1.6-1.4-3.2-2.6-4.1-4c-0.4-0.6-0.7-1.4-0.2-2
				c0.3-0.4,1.1-0.5,1.4-0.1c0.4,0.5,0.8,1.2,1.2,2c0.4,0.8,1.1,1.6,2.1,1.4c0.7-0.1,1.2-0.4,1.6-0.7c0.4-0.4,1-1.1,1.2-1.8
				c0.1-0.7-0.1-2.1-0.9-4.2c-0.7-1.7-1.8-3.4-4.2-4.1c-1.6-0.5-3.1-0.4-4.7,0.7c-1.7,1.1-3,3-3.7,4.8c-0.7,2-0.9,4.5-0.1,6.5
				c1.1,2.6,3.9,4.8,5.2,6.5c1.1,1.4,1.3,2.7,0.3,3.5c-1,0.9-2.2,0.5-3.1-1c-1-1.5-1.4-3.6-2.5-3.7c-1-0.1-3.3,1.2-3.9,2.4
				c-0.5,1.4-0.5,6.9,1.3,9.5c1.7,2.5,4.5,3.9,7.3,3.6c2.6-0.2,5.3-1.8,7.1-4.2C199.6,67.2,200.9,63.4,200.5,60.5z"/>
			<linearGradient id="SVGID_12_" gradientUnits="userSpaceOnUse" x1="14.6119" y1="52.8504" x2="108.8756" y2="52.8504">
				<stop  offset="0" style="stop-color:#F38CB4"/>
				<stop  offset="0.1445" style="stop-color:#E884B1"/>
				<stop  offset="0.3913" style="stop-color:#D274AB"/>
				<stop  offset="0.7079" style="stop-color:#B05AA1"/>
				<stop  offset="1" style="stop-color:#904299"/>
			</linearGradient>
			<path class="st16" d="M29.3,14.6c0.3,0.6-0.2,4.1-0.8,8.1c-1.2,7.7-2,18.3-1.4,28.3c0.7,11.2,2.1,17.7,2.3,18.3
				c1.6-0.8,11.4-5.1,17.1-7.2c8.5-3.2,12.1-2.9,19,1.7c6.3,4.2,16.5,11,24.1,10.6c7.7-0.5,13.3-6.1,14.8-10
				c1.3-3.4,0.5-6.9-1.5-7.3s-2.7,1.8-2.7,2.8c-0.2,0.1-1-1.8-0.3-3.4c0.7-1.8,3.2-3,5.3-2.1c2.2,0.9,3.9,4,3.8,8.1
				c-0.1,3.6-1.3,7.9-6.1,12.7c-7.6,7.6-18.8,8-27.4,4.3c-8.5-3.6-14.6-9.4-21.1-9c-7.4,0.5-17.1,7.2-25,13.7c-4.9,4-9.2,7.2-10.8,7
				c-1-0.8-2-5.4-3-12c-1-6.3-1-21.6-0.5-32.4c0.7-14.6,2.7-24.2,3.4-25.8C19.7,19.3,28.3,13.6,29.3,14.6z"/>
			<linearGradient id="SVGID_13_" gradientUnits="userSpaceOnUse" x1="32.2422" y1="37.0904" x2="67.9091" y2="37.0904">
				<stop  offset="0" style="stop-color:#F38CB4"/>
				<stop  offset="0.1445" style="stop-color:#E884B1"/>
				<stop  offset="0.3913" style="stop-color:#D274AB"/>
				<stop  offset="0.7079" style="stop-color:#B05AA1"/>
				<stop  offset="1" style="stop-color:#904299"/>
			</linearGradient>
			<path class="st17" d="M58.8,40c0.5-5,0.2-9.7-0.3-13.7c-0.4-3.4-1.1-6.3-1.4-7.2c-0.2-0.4-1-0.8-1.8-1.1c-1-0.4-3.1-0.7-4.4-0.7
				c-1.1,0-2.8,0-3,0.6c-0.2,0.4-0.1,1.4,0.2,3.1c0.3,1.5,1.3,8.6,1.7,15.2c0.3,5.4,0.1,7.9-0.7,9.7c-0.6,1.4-1.8,2.4-3.2,2.5
				c-1.2,0.1-2.8-0.7-3.8-2.5c-1.3-2.3-1.8-7.4-1.3-13.1c0.5-5.5,1.9-11.2,2-11.7c0.1-0.5,0-1.4-1-1.1c-1.5,0.5-5.9,2.6-7.4,4.5
				c-0.4,0.8-1.2,3.9-1.6,7.2c-0.4,3.6-0.9,8-0.4,12c0.4,3.4,2.1,7.6,4.8,10.2c3.3,3.1,6.9,3.5,10.1,2.8c3.3-0.7,6-2.7,7.6-5
				C56.7,49.1,58.2,45.7,58.8,40z"/>
		</g>
		<g>
			<linearGradient id="SVGID_14_" gradientUnits="userSpaceOnUse" x1="184.2321" y1="41.2277" x2="124.5257" y2="73.5134">
				<stop  offset="0" style="stop-color:#CE90D7"/>
				<stop  offset="0.1003" style="stop-color:#C491D8"/>
				<stop  offset="0.2716" style="stop-color:#A994D9"/>
				<stop  offset="0.4931" style="stop-color:#7D99DB"/>
				<stop  offset="0.7532" style="stop-color:#40A0DE"/>
				<stop  offset="1" style="stop-color:#00A7E1"/>
			</linearGradient>
			<path class="st18" d="M135.6,58.9c-3.7,3.8-6.5,9.3-4.6,13.4c1.1,2.3,3.9,3.6,6,3.4c1.8-0.1,3.3-1.3,3.7-2.7
				c0.3-1.2-0.4-3.4-1.8-3.4c1.1,3-1.7,4.3-3.3,3.4c-2.8-1.6-2.7-5.6,1.2-9.8c0.9-1,1.9-1.9,3-2.8c-0.5-1.3-0.9-2.6-1.1-4
				C137.6,57.2,136.5,58,135.6,58.9z"/>
			<linearGradient id="SVGID_15_" gradientUnits="userSpaceOnUse" x1="244.0436" y1="10.5917" x2="178.4606" y2="64.6283">
				<stop  offset="0" style="stop-color:#CE90D7"/>
				<stop  offset="0.1003" style="stop-color:#C491D8"/>
				<stop  offset="0.2716" style="stop-color:#A994D9"/>
				<stop  offset="0.4931" style="stop-color:#7D99DB"/>
				<stop  offset="0.7532" style="stop-color:#40A0DE"/>
				<stop  offset="1" style="stop-color:#00A7E1"/>
			</linearGradient>
			<path class="st19" d="M224.2,10.3c-7.4,0.3-12.9,8.9-9.9,16.8c-0.3-0.3-1.8-4.7-6.7-6c-4.6-1.2-9.7,2.9-9,9.7
				c0.5,4.5,3.2,7.7,5.6,11.8c3.8,6.5,5.4,13.4,3.9,21c-1.7,8.4-9.7,15-17.3,15.3c-5.4,0.2-12.1-1.5-19.8-8.5
				c-3.2-2.9-6.8-8.1-10.1-12.3c-0.9-1.1-1.8-2.2-2.6-3.1c-0.9-1-2-1.8-3.1-2.3c-2-1-4.2-1.2-6.6-0.8c0,0.2,0,0.4,0.1,0.6
				c0.2,1.4,0.4,2.3,0.8,2.9c1-0.1,2,0,2.8,0.3c0.3,0.1,0.6,0.3,0.9,0.5c1.9,1.2,3.7,3.4,5.7,5.9c2.6,3.4,5.4,7.5,8.5,10.9
				c6.8,7.5,15.1,11.9,22.7,11.4c10.6-0.7,18.7-6.7,24.1-12.7c6.6-7.4,15.1-20.1,18.8-33C238.2,19.8,231.7,10,224.2,10.3z"/>
		</g>
		<g class="st20">
			<path class="st21" d="M139,57.7c-0.1-0.4-0.2-0.9-0.3-1.3c-1.2,0.8-2.2,1.7-3.1,2.6c-0.3,0.3-0.5,0.5-0.7,0.8
				c0.5,0.1,1.1,0.1,1.7-0.1C137.6,59.3,138.5,58.6,139,57.7z"/>
			<path class="st21" d="M132,63.8c-1.2,2.2-1.8,4.5-1.5,6.5c2-0.6,3.2-2.7,2.6-4.7C132.9,64.9,132.5,64.3,132,63.8z"/>
			<path class="st21" d="M139,69.6c1,2.7-1.1,4-2.7,3.7c0,0.2,0.1,0.4,0.1,0.6c0.2,0.7,0.6,1.4,1.1,1.8c1.7-0.3,3-1.3,3.4-2.6
				C141.1,71.9,140.4,69.6,139,69.6z"/>
			<path class="st21" d="M232.5,15.6c-1-1.8-2.3-3.1-3.7-4c0,0.4,0,0.8,0.1,1.1C229.4,14.3,230.9,15.5,232.5,15.6z"/>
			
				<ellipse transform="matrix(0.9979 -6.411858e-02 6.411858e-02 0.9979 -0.9715 14.569)" class="st21" cx="226.5" cy="22.4" rx="3.9" ry="3.9"/>
			<path class="st21" d="M233.5,29.6c0.2,0.6,0.5,1.2,0.9,1.6c0.3-2,0.4-3.9,0.4-5.6C233.6,26.6,233.1,28.1,233.5,29.6z"/>
			<path class="st21" d="M230,35.6c-2.1,0.6-3.3,2.7-2.7,4.8c0.5,1.8,2.2,3,4.1,2.9c0.5-1.4,1-2.9,1.4-4.3c0.3-0.9,0.5-1.7,0.7-2.6
				C232.5,35.6,231.3,35.3,230,35.6z"/>
			<path class="st21" d="M216.8,20c2.1-0.6,3.3-2.7,2.7-4.8c-0.3-1-0.9-1.8-1.7-2.3c-1.9,1.7-3.4,4-4,6.6
				C214.7,20.1,215.7,20.2,216.8,20z"/>
			
				<ellipse transform="matrix(0.1748 -0.9846 0.9846 0.1748 146.3795 228.5756)" class="st21" cx="209.6" cy="27" rx="3.9" ry="3.9"/>
			<path class="st21" d="M216.5,34.2c0.6,2.1,2.7,3.3,4.8,2.7c2.1-0.6,3.3-2.7,2.7-4.8c-0.6-2.1-2.7-3.3-4.8-2.7
				C217.2,30,216,32.1,216.5,34.2z"/>
			
				<ellipse transform="matrix(0.9979 -6.411857e-02 6.411857e-02 0.9979 -2.3751 13.8176)" class="st21" cx="214.1" cy="43.9" rx="3.9" ry="3.9"/>
			<path class="st21" d="M223.8,46.4c-2.1,0.6-3.3,2.7-2.7,4.8s2.7,3.3,4.8,2.7c0.3-0.1,0.6-0.2,0.9-0.4c0.7-1.3,1.3-2.6,2-3.9
				c0-0.2-0.1-0.3-0.1-0.5C228,47,225.9,45.8,223.8,46.4z"/>
			<path class="st21" d="M217.6,57.1c-2.1,0.6-3.3,2.7-2.7,4.8c0.6,2.1,2.7,3.3,4.8,2.7c0.1,0,0.1,0,0.2-0.1
				c0.9-1.2,1.8-2.5,2.7-3.9c0-0.3-0.1-0.5-0.1-0.8C221.8,57.8,219.7,56.6,217.6,57.1z"/>
			<path class="st21" d="M202.3,34c-1,0.3-1.8,0.9-2.3,1.8c1,2,2.2,3.8,3.5,5.9c0.3,0,0.6-0.1,0.8-0.1c2.1-0.6,3.3-2.7,2.7-4.8
				C206.5,34.6,204.4,33.4,202.3,34z"/>
			<path class="st21" d="M208.9,58.4c2.1-0.6,3.3-2.7,2.7-4.8c-0.5-1.8-2.2-3-4-2.9c0.7,2.5,1,5,1,7.7
				C208.7,58.4,208.8,58.4,208.9,58.4z"/>
			<path class="st21" d="M211.4,67.9c-2.1,0.6-3.3,2.7-2.7,4.8c0.3,1.2,1.1,2.1,2.2,2.5c1.1-1,2.2-2.1,3.2-3.2
				c0.6-0.7,1.2-1.4,1.9-2.2C215,68.2,213.2,67.4,211.4,67.9z"/>
			<path class="st21" d="M205.2,78.6c-1.3,0.3-2.2,1.3-2.6,2.4c1.5-0.8,2.8-1.6,4.1-2.5C206.2,78.4,205.7,78.5,205.2,78.6z"/>
			<path class="st21" d="M196.5,79.9c1.7-0.5,2.9-2,2.9-3.8c-2.1,1.3-4.4,2.3-6.7,2.7C193.6,79.8,195.1,80.3,196.5,79.9z"/>
			<path class="st21" d="M188.3,83.1c-0.9,0.2-1.6,0.7-2.1,1.4c1.2,0.2,2.5,0.2,3.7,0.1c0.8-0.1,1.6-0.1,2.3-0.3
				C191.3,83.3,189.8,82.7,188.3,83.1z"/>
			<path class="st21" d="M159.5,56.6c-0.2,0.6-0.2,1.3,0,2c0.5,1.8,2.1,2.9,3.8,2.9c-0.8-1.1-1.6-2.2-2.4-3.2
				C160.4,57.7,159.9,57.1,159.5,56.6z"/>
			<path class="st21" d="M166.8,70.7c-0.4,0.1-0.8,0.3-1.2,0.6c0.5,0.7,1.1,1.3,1.7,1.9c1.2,1.3,2.4,2.5,3.6,3.6
				c0.7-0.9,1-2.1,0.7-3.3C171,71.4,168.9,70.2,166.8,70.7z"/>
			<path class="st21" d="M177.5,76.9c-1.4,0.4-2.5,1.5-2.8,2.9c2.2,1.5,4.4,2.7,6.6,3.5c0.9-0.9,1.3-2.3,0.9-3.6
				C181.7,77.6,179.6,76.4,177.5,76.9z"/>
			<path class="st21" d="M148.7,52c0,0.1,0,0.3,0.1,0.4c0.6,2.1,2.7,3.3,4.8,2.7c1.1-0.3,1.9-1,2.4-1.9c-0.3-0.2-0.5-0.3-0.8-0.4
				C153.2,51.8,151,51.6,148.7,52z"/>
		</g>
		<g class="st20">
			<path class="st22" d="M154.9,57.8l-8.8,8.8c0.5,0.2,1,0.3,1.5,0.4c0.1,0,0.2,0,0.4,0.1l8.1-8.1C155.7,58.6,155.3,58.2,154.9,57.8
				z"/>
			<path class="st22" d="M158.2,55.1c0.3,0.3,0.6,0.6,0.9,1l3.6-3.6c0.2-0.8,0.4-1.6,0.6-2.5c0-0.2,0.1-0.4,0.1-0.6l-5.4,5.4
				C158,54.9,158.1,55,158.2,55.1z"/>
			<path class="st22" d="M180.4,34.8l11.3-11.3l1.6-1.6c0.1-0.9,0.2-1.8,0.2-2.6l-3,3l-6.9,6.9c-1.8,2.6-4.2,4.7-5.1,5.1
				c0,0,0,0,0,0l-9.5,9.5c0,0.8,0,1.6,0,2.4l0.2-0.2L180.4,34.8z"/>
			<path class="st22" d="M156.9,41.6c-0.1,0.8-0.2,1.7-0.3,2.7l5.4-5.4l2.7-2.7c0-0.9,0.1-1.7,0.1-2.4l-3.9,3.9L156.9,41.6z"/>
			<path class="st22" d="M148.6,52C148.6,52,148.6,52,148.6,52L148.6,52c0-0.6-0.1-1.2-0.1-1.9l-9.1,9.1c0.2,0.6,0.4,1.2,0.7,1.7
				l8.5-8.5C148.6,52.2,148.6,52.1,148.6,52z"/>
			<path class="st22" d="M184.6,16.3l3.2-3.2c-1,0.1-2,0.3-2.9,0.6l-1.4,1.4l-11.3,11.3l-1.6,1.6c0,0.2-0.1,0.3-0.1,0.5
				c-0.1,0.5-0.2,1.3-0.3,2.3l3.2-3.2L184.6,16.3z"/>
			<path class="st22" d="M125.6,75c0.1-0.4,0.1-1.1,0-2.1l-6.9,6.9c0.7,0,1.4-0.3,2.3-0.8c0.9-0.5,1.9-1.1,2.7-1.8l1.6-1.6
				C125.4,75.4,125.6,75.2,125.6,75z"/>
			<path class="st22" d="M179.4,26.2c0.1-0.7,0.2-1.3,0.4-1.8c0.8-1,2.6-2.7,4.7-3.3l2.4-2.4l4.7-4.7c-0.5-0.4-1-0.6-1.6-0.7
				l-4.2,4.2l-11.3,11.3l-4.8,4.8c-0.1,0.8-0.2,1.7-0.3,2.6l6.2-6.2L179.4,26.2z"/>
			<path class="st22" d="M149.3,55.3C149.3,55.3,149.3,55.2,149.3,55.3c-0.1-0.1-0.1-0.2-0.1-0.3c0,0,0-0.1,0-0.1
				c0-0.1-0.1-0.2-0.1-0.4c0-0.1,0-0.1-0.1-0.2l-8,8c0.3,0.5,0.6,0.9,1,1.4l7.8-7.8C149.6,55.8,149.4,55.6,149.3,55.3z"/>
			<path class="st22" d="M156.3,47c-0.1,1-0.3,1.9-0.5,2.9l8.6-8.6l0,0c0.1-0.9,0.1-1.7,0.2-2.6l-1.4,1.4L156.3,47z"/>
			<path class="st22" d="M178.7,31.7c0.1-0.9,0.2-1.8,0.3-2.7l-2.2,2.2l-7.6,7.6c-0.1,0.8-0.1,1.6-0.1,2.5l8.9-8.9L178.7,31.7z"/>
			<path class="st22" d="M156.7,53.7l7.1-7.1c0.1-0.9,0.2-1.8,0.3-2.7l-8.9,8.9C155.7,53.1,156.2,53.4,156.7,53.7z"/>
			<path class="st22" d="M153.1,56.3c-0.5,0.4-1.1,0.6-1.8,0.5c0,0-0.1,0-0.1,0l-8.1,8.1c0.4,0.4,0.9,0.7,1.4,1l9.1-9.1
				C153.5,56.6,153.3,56.5,153.1,56.3z"/>
			<path class="st22" d="M186.3,21.8c0.2,0.6,0.1,1.5-0.3,2.6l3.3-3.3l4-4c-0.1-0.7-0.3-1.3-0.6-1.8l-4.6,4.6L186.3,21.8z"/>
			<path class="st22" d="M164.1,24.9l-6.8,6.8c0,0.7,0,1.5,0,2.4l7.2-7.2C164.4,26,164.3,25.4,164.1,24.9z"/>
			<path class="st22" d="M124.7,66.7c-0.1-0.7-0.2-1.4-0.3-2.1l-2.3,2.3l-6.9,6.9c0.1,0.8,0.3,1.4,0.4,2l7.6-7.6L124.7,66.7z"/>
			<path class="st22" d="M148.8,42.6c0.1-0.9,0.2-1.8,0.3-2.6l-4.3,4.3l-6.3,6.3c0,0.8,0,1.6,0,2.4l7.5-7.5L148.8,42.6z"/>
			<path class="st22" d="M164.7,29.1l-6.3,6.3l-1.2,1.2c0,0.8-0.1,1.6-0.1,2.5l2.5-2.5l5.1-5.1c0-0.7,0-1.4,0-1.9
				C164.7,29.4,164.7,29.2,164.7,29.1z"/>
			<path class="st22" d="M148.5,47.6c0-0.8,0.1-1.6,0.1-2.5l-1.5,1.5l-8.6,8.6c0,0.3,0.1,0.6,0.1,0.9c0.1,0.4,0.1,0.8,0.2,1.2
				l9.4-9.4L148.5,47.6z"/>
			<path class="st22" d="M176,18.1c-0.4,0.3-0.9,0.7-1.5,1.2l-2.2,2.2c-0.2,0.3-0.4,0.7-0.6,1c-0.3,0.6-0.5,1.6-0.7,2.7l9.9-9.9
				C179,16.3,177,17.4,176,18.1z"/>
			<path class="st22" d="M125,68.7l-0.5,0.5l-8.2,8.2c0.3,0.7,0.5,1.2,0.8,1.5l8.2-8.2C125.2,70.1,125.1,69.4,125,68.7z"/>
			<path class="st22" d="M158.3,61.6c-0.4-0.5-0.7-0.9-1.1-1.3l-7,7c1,0,2-0.2,2.9-0.6L158.3,61.6z"/>
			<path class="st22" d="M160.9,58.2c0.3-0.8,0.6-1.6,0.9-2.4l-1.6,1.6C160.4,57.7,160.6,58,160.9,58.2z"/>
			<path class="st22" d="M182.8,37.1l8.5-8.5c0.6-1.3,1.1-2.5,1.4-3.8l-11.1,11.1l-11.3,11.3l-1.4,1.4c0,0.8,0,1.6,0,2.4l2.5-2.5
				L182.8,37.1z"/>
			<path class="st22" d="M181.2,41.1c1.8-1.4,3.8-3.3,6-6l-3.2,3.2L181.2,41.1z"/>
			<path class="st22" d="M177.7,46.9c0.1-0.9,0.1-1.7,0.2-2.6l-5.3,5.3l-3.7,3.7c0,0.8,0.1,1.5,0.1,2.3l4.7-4.7L177.7,46.9z"/>
			<path class="st22" d="M177.6,51.9c0-0.8,0-1.6,0.1-2.4l-2.6,2.6l-5.8,5.8c0.1,0.8,0.1,1.5,0.2,2.2l6.8-6.8L177.6,51.9z"/>
			<path class="st22" d="M177.6,54.2l-0.1,0.1l-7.6,7.6c0.2,0.7,0.4,1.3,0.6,1.7l7.2-7.2C177.6,55.7,177.6,54.9,177.6,54.2z"/>
			<path class="st22" d="M194,40.2c-0.9-0.1-1.7-0.1-2.6,0.2l-2.6,2.6l-1.8,1.8c-0.2,0.3-0.3,0.7-0.4,1c-0.3,0.7-0.4,1.5-0.5,2.3
				l4-4L194,40.2z"/>
			<path class="st22" d="M177.8,58.8l-6,6c0.6,0.2,1.2,0.2,2.1,0.1c0.1,0,0.2,0,0.3,0l3.8-3.8C177.9,60.4,177.8,59.6,177.8,58.8z"/>
			<path class="st22" d="M197.2,41.7c-0.4-0.4-0.9-0.7-1.4-1l-4.7,4.7l-5.2,5.2c0.1,0.6,0.2,1.2,0.5,1.8c0,0,0,0,0,0.1l5.9-5.9
				L197.2,41.7z"/>
			<path class="st22" d="M193.9,47.8c0.3,0.3,0.5,0.7,0.8,1.2l4.3-4.3c0-0.1,0-0.1-0.1-0.2c-0.2-0.5-0.4-1-0.7-1.4l-4.6,4.6
				C193.8,47.7,193.8,47.7,193.9,47.8z"/>
			<path class="st22" d="M192.7,49.9c-0.2-0.3-0.3-0.6-0.4-0.8l-5,5c0.3,0.5,0.7,0.9,1,1.3l4.9-4.9C193,50.3,192.8,50.1,192.7,49.9z
				"/>
			<path class="st22" d="M185.9,57.8c-1.1,0.2-2.9,1.3-3.5,2.4c-0.1,0.3-0.2,0.8-0.2,1.4l1.2-1.2L185.9,57.8z"/>
			<path class="st22" d="M188.2,60.3c-0.3-0.6-0.5-1.1-0.8-1.6l-2.8,2.8l-2.4,2.4c0,0.7,0.1,1.4,0.3,2.1l3.3-3.3L188.2,60.3z"/>
			<path class="st22" d="M195.6,50.5c0.4,0.5,0.9,0.8,1.6,0.8l2.7-2.7c0-0.5,0-1.2-0.3-2.1l-3.8,3.8L195.6,50.5z"/>
			<path class="st22" d="M194.3,51.7l-4.9,4.9c0.4,0.4,0.8,0.8,1.2,1.2l5-5C195.1,52.5,194.7,52.1,194.3,51.7z"/>
			<path class="st22" d="M190.3,62.8c-0.5-0.1-0.9-0.5-1.3-1.1l-2.1,2.1l-4,4c0.2,0.6,0.5,1.1,0.8,1.6l4.5-4.5L190.3,62.8z"/>
			<path class="st22" d="M196.9,53.9l-5.2,5.2c0.4,0.6,0.7,1.1,0.8,1.6l5.6-5.6C197.7,54.7,197.3,54.3,196.9,53.9z"/>
			<path class="st22" d="M199.9,58c-0.2-0.6-0.5-1.1-0.8-1.6l-9.8,9.8l-4.6,4.6c0.4,0.4,0.8,0.8,1.3,1.1l4.5-4.5L199.9,58z"/>
			<path class="st22" d="M200.6,62.1c0-0.5,0-1.1,0-1.6c0-0.2-0.1-0.4-0.1-0.7l-8.7,8.7l-4.1,4.1c0.6,0.2,1.2,0.4,1.9,0.5l3.4-3.4
				L200.6,62.1z"/>
			<path class="st22" d="M197.5,70c0.2-0.3,0.5-0.5,0.7-0.8c0.8-1,1.5-2.5,1.9-4.2l-6,6l-2.2,2.2c1.8-0.3,3.5-1.3,5-2.6L197.5,70z"
				/>
			<path class="st22" d="M153.7,18.7c0-0.1-0.1-0.1-0.1-0.2c-0.3-0.4-0.7-0.6-1.2-0.9l-5.8,5.8l-4.8,4.8c-0.3,1.1-0.6,2.2-0.9,3.3
				l6.9-6.9L153.7,18.7z"/>
			<path class="st22" d="M91.3,81.1l11.3-11.3l6.2-6.2c0-0.4,0.1-0.7,0.1-1.1c0-0.5,0-0.9,0-1.3l-6.3,6.3c-0.8,1-1.8,2-3,3l-9.5,9.5
				l-1.7,1.7c0.9-0.1,1.8-0.2,2.7-0.4L91.3,81.1z"/>
			<path class="st22" d="M123.1,49.3c0-0.8-0.1-1.5-0.1-2.3l-9.6,9.6c0.1,0.7,0.1,1.5,0.2,2.2l0.3-0.3L123.1,49.3z"/>
			<path class="st22" d="M123.4,53.7c-0.1-0.7-0.1-1.5-0.2-2.2l-8.2,8.2l-1.3,1.3c0.1,0.7,0.1,1.5,0.2,2.2l2.3-2.3L123.4,53.7z"/>
			<path class="st22" d="M94.3,80.4c1.6-0.5,3.1-1.3,4.5-2.2l6.1-6.1l1.3-1.3c1-1.5,1.6-3,2-4.4l-4.5,4.5L94.3,80.4z"/>
			<path class="st22" d="M152.5,24.6c0.4-1.4,0.7-2.5,1-3.3l-4.5,4.5l-8.8,8.8c-0.2,0.9-0.4,1.9-0.5,2.9L150.1,27L152.5,24.6z"/>
			<path class="st22" d="M150.7,31.2c0.3-1.3,0.6-2.4,0.9-3.2l-0.3,0.3L140,39.5l-0.8,0.8c-0.1,0.9-0.2,1.8-0.3,2.7l2.3-2.3
				L150.7,31.2z"/>
			<path class="st22" d="M123.8,58.1c-0.1-0.7-0.1-1.5-0.2-2.2l-6.1,6.1l-3.2,3.2c0.1,0.7,0.2,1.5,0.2,2.1l4.2-4.2L123.8,58.1z"/>
			<path class="st22" d="M162.7,23.8c-0.7,0-1.8,0.2-2.7,0.5l-2.6,2.6c-0.1,0.7-0.1,1.5-0.1,2.5l5.5-5.5
				C162.8,23.8,162.7,23.8,162.7,23.8z"/>
			<path class="st22" d="M149.4,37.2c0.2-1,0.4-2,0.6-2.9l-7.6,7.6l-3.7,3.7c-0.1,0.9-0.1,1.7-0.1,2.5l5-5L149.4,37.2z"/>
			<path class="st22" d="M124.2,62.4c-0.1-0.7-0.2-1.4-0.2-2.1l-4.2,4.2l-5.1,5.1c0.1,0.7,0.2,1.4,0.3,2.1l6-6L124.2,62.4z"/>
			<path class="st22" d="M29.3,14.7c0-0.1,0-0.1,0-0.1c-0.3-0.3-1.6,0.1-3.2,1l-0.2,0.2l-8.4,8.4c-0.2,0.8-0.4,1.8-0.6,2.9
				l10.1-10.1L29.3,14.7z"/>
			<path class="st22" d="M28.9,19.9c0.1-1,0.3-1.9,0.4-2.7l-0.9,0.9L17,29.4l-0.5,0.5c-0.1,0.9-0.3,1.8-0.4,2.8l2-2L28.9,19.9z"/>
			<path class="st22" d="M75.9,70.3l-6.3,6.3c0.5,0.3,1,0.6,1.5,0.8l6.3-6.3C77,70.9,76.4,70.6,75.9,70.3z"/>
			<path class="st22" d="M94.5,54.1c0.2-1,0.4-2.1,0.7-3l-5.7,5.7l-1.6,1.6c0.1,0.7,0.2,1.4,0.3,2.1l2.4-2.4L94.5,54.1z"/>
			<path class="st22" d="M127.9,18.3c0.6,0,1.1,0.4,1.4,1l6.5-6.5l0.1-0.1c-0.3-0.5-0.6-1-1-1.4l-0.3,0.3L127.9,18.3z"/>
			<path class="st22" d="M122.7,25.9c0.1-0.9,0.1-1.8,0.2-2.6l-9.9,9.9c0,0.8-0.1,1.6-0.1,2.4l0.4-0.4L122.7,25.9z"/>
			<path class="st22" d="M122.5,30.8c0-0.8,0-1.6,0.1-2.4l-8.1,8.1l-1.6,1.6c0,0.8,0,1.6,0,2.4l2.8-2.8L122.5,30.8z"/>
			<path class="st22" d="M79.1,71.9l-6.4,6.4c0.5,0.3,1.1,0.5,1.6,0.8l6.4-6.4C80.2,72.4,79.7,72.1,79.1,71.9z"/>
			<path class="st22" d="M93.7,59.6c0.1-0.8,0.2-1.7,0.3-2.7l-2.2,2.2l-3.2,3.2c0.2,0.6,0.4,1.2,0.6,1.8l3.7-3.7L93.7,59.6z"/>
			<path class="st22" d="M129.8,23.6l7.5-7.5c-0.2-0.6-0.3-1.2-0.6-1.8l-6.8,6.8C130,21.8,129.9,22.7,129.8,23.6z"/>
			<path class="st22" d="M129.3,28.8l8.4-8.4c0-0.8,0-1.5-0.1-2.3l-8.7,8.7c-0.1,0.3-0.2,0.6-0.3,0.8c-1.7,3.9-5,6.6-6,7.1
				c0-0.5,0-1,0-1.6l-5.7,5.7l-4,4c0,0.8,0,1.6,0,2.3l5.2-5.2L129.3,28.8z"/>
			<path class="st22" d="M84.3,73.8c-0.6-0.2-1.2-0.3-1.8-0.6L76,79.7c0.6,0.2,1.2,0.4,1.7,0.6l6.4-6.4L84.3,73.8z"/>
			<path class="st22" d="M99.8,56.5c-0.3,0.7-0.3,1.4-0.2,2.1l4.4-4.4C102.2,53.9,100.4,55,99.8,56.5z"/>
			<path class="st22" d="M93.6,62.2L90,65.7c0.3,0.6,0.6,1.1,0.9,1.5l2.6-2.6C93.5,64,93.5,63.2,93.6,62.2z"/>
			<path class="st22" d="M131.7,31.2l5.2-5.2c0.3-1,0.5-2,0.6-3l-7,7l-11.3,11.3l-6.3,6.3c0,0.1,0,0.1,0,0.2c0,0.7,0.1,1.4,0.1,2.1
				l7.4-7.4L131.7,31.2z"/>
			<path class="st22" d="M105.8,54.7l-2.5,2.5c0.5,0.2,0.9,0.7,1.1,1.2l2.6-2.6C106.6,55.4,106.2,55,105.8,54.7z"/>
			<path class="st22" d="M93.5,67l-1.2,1.2C93,68.2,93.4,67.7,93.5,67z"/>
			<path class="st22" d="M88.5,74.4c-0.7,0-1.4-0.1-2.2-0.2l-1,1l-5.7,5.7c0.6,0.2,1.3,0.3,2,0.4l5-5L88.5,74.4z"/>
			<path class="st22" d="M150.6,17c-0.6-0.2-1.2-0.4-1.9-0.5l-4.6,4.6l-0.1,0.1c-0.4,1-0.8,2.3-1.2,3.6l2.5-2.5L150.6,17z"/>
			<path class="st22" d="M94.2,73.5c-1,0.4-2.1,0.6-3.2,0.8l-3.3,3.3l-4.1,4.1c0.7,0.1,1.5,0.1,2.2,0.1l3-3L94.2,73.5z"/>
			<path class="st22" d="M107.9,57.4l-3,3c0.1,0.8,0,1.6-0.2,2.5l3.8-3.8C108.4,58.5,108.1,57.9,107.9,57.4z"/>
			<path class="st22" d="M133.9,33.8c0.7-1.4,1.4-2.8,2-4.3l-2.9,2.9l-11.3,11.3l-8.4,8.4c0,0.8,0.1,1.5,0.1,2.2l9.5-9.5L133.9,33.8
				z"/>
			<path class="st22" d="M97.8,24.7c0.2,0.6,0.5,1.1,0.9,1.5l2.7-2.7l6.2-6.2c-0.3-0.5-0.7-0.9-1.2-1.2l-6.2,6.2L97.8,24.7z"/>
			<path class="st22" d="M62.7,62.1c-0.5-0.3-1.1-0.6-1.6-0.8L55,67.4L51.5,71c1-0.2,1.9-0.4,2.8-0.5c0,0,0,0,0.1,0l1.9-1.9
				L62.7,62.1z"/>
			<path class="st22" d="M69.1,53.4c0.2,0.6,0.4,1.2,0.6,1.7l9.1-9.1l5.7-5.7c0.4-1.2,0.8-2.4,1.2-3.5l-8.1,8.1L69.1,53.4z"/>
			<path class="st22" d="M100,27.3c0.2,0.1,0.4,0.2,0.6,0.2c0.4,0.1,0.9,0.2,1.4,0.2l1.8-1.8l4.6-4.6c0.1-0.8,0-1.6-0.1-2.2
				l-5.7,5.7L100,27.3z"/>
			<path class="st22" d="M65.6,64c-0.1,0-0.1-0.1-0.2-0.1c-0.4-0.3-0.8-0.5-1.2-0.8l-6.8,6.8l-0.8,0.8c0.6,0.1,1.3,0.2,1.9,0.4l0,0
				L65.6,64z"/>
			<path class="st22" d="M70.5,56.8c0.3,0.6,0.5,1.1,0.8,1.6l10-10l1.2-1.2c0.3-1.1,0.6-2.2,1-3.4L80,47.2L70.5,56.8z"/>
			<path class="st22" d="M97.1,32.5c-0.5-0.2-1-0.3-1.4-0.3c-0.2,0-0.4,0-0.7,0.1l-2.9,2.9c-0.4,0.8-1,2.2-1.7,4.1l2-2L97.1,32.5z"
				/>
			<path class="st22" d="M67.1,64.9l-6.7,6.7c0.5,0.2,1.1,0.5,1.6,0.7l6.5-6.5C68,65.5,67.5,65.2,67.1,64.9z"/>
			<path class="st22" d="M124.5,9.9c-0.6,0.3-1.3,0.6-1.8,0.9c-1.6,1-3.2,2.1-4.6,3.1l-1.8,1.8l-1.7,1.7c0,0,0,0.1,0,0.1
				c-0.2,0.5-0.4,1.6-0.6,2.9l3.5-3.5L124.5,9.9z"/>
			<path class="st22" d="M106.6,25.4l-0.7,0.7C106.1,25.9,106.3,25.7,106.6,25.4z"/>
			<path class="st22" d="M72.9,61.5l8-8c0.2-1,0.4-2,0.7-3.1L72,60C72.3,60.5,72.6,61,72.9,61.5z"/>
			<path class="st22" d="M100,34.3c-0.4-0.4-0.8-0.7-1.3-1l-5,5l-4.3,4.3c-0.3,1-0.5,2-0.7,3.1l6.2-6.2L100,34.3z"/>
			<path class="st22" d="M69.9,66.8l-6.4,6.4c0.5,0.3,1,0.5,1.5,0.8l6.3-6.3C70.9,67.4,70.4,67.1,69.9,66.8z"/>
			<path class="st22" d="M99.7,39.4c0.5-1.1,0.9-1.8,1-2.2c0.2-0.5,0.2-0.9,0.2-1.4L96,40.7l-7.9,7.9c-0.1,0.9-0.2,1.7-0.3,2.6
				l9.4-9.4L99.7,39.4z"/>
			<path class="st22" d="M74.9,64.2l4.8-4.8c0.2-0.9,0.4-1.9,0.6-2.9l-6.5,6.5C74.2,63.5,74.6,63.9,74.9,64.2z"/>
			<path class="st22" d="M130.3,8.8c-0.8-0.1-1.6,0-2.5,0.1l-9.2,9.2l-5,5c-0.1,0.9-0.2,1.8-0.3,2.6l6.5-6.5L130.3,8.8z"/>
			<path class="st22" d="M96.2,47.7c0.4-1.3,0.9-2.6,1.5-3.8l-9.9,9.9c0,0.8,0,1.6,0,2.4l0.5-0.5L96.2,47.7z"/>
			<path class="st22" d="M78.9,62.6l-2.1,2.1C77.8,64.5,78.4,64.1,78.9,62.6z"/>
			<path class="st22" d="M133.5,10.4l0.3-0.3c-0.5-0.4-1-0.6-1.5-0.9L121,20.5l-7.8,7.8c0,0.5-0.1,1.4-0.1,2.5l9.1-9.1L133.5,10.4z"
				/>
			<path class="st22" d="M72.9,68.6l-6.3,6.3c0.5,0.3,1,0.6,1.5,0.9l6.3-6.3C73.9,69.2,73.4,68.9,72.9,68.6z"/>
			<path class="st22" d="M27.1,36c0.1-0.9,0.1-1.7,0.2-2.5l-3.1,3.1L15,45.7c0,0.4,0,0.8-0.1,1.1c0,0.4,0,0.9-0.1,1.4l10.5-10.5
				L27.1,36z"/>
			<path class="st22" d="M33.7,27c-0.2,0.9-0.4,1.9-0.6,3l3.5-3.5l6.2-6.2c-0.1-0.3-0.4-0.5-1-0.3c-0.4,0.1-1.2,0.4-2,0.8l-4.5,4.5
				L33.7,27z"/>
			<path class="st22" d="M27.7,59.1c-0.1-0.7-0.1-1.4-0.2-2.2l-2.8,2.8l-10,10c0,0.8,0.1,1.5,0.1,2.3l11.1-11.1L27.7,59.1z"/>
			<path class="st22" d="M64.1,21.6c-0.2,0.4-0.4,1-0.5,1.6l4.8-4.8C66.5,19.5,64.5,20.9,64.1,21.6z"/>
			<path class="st22" d="M58.6,26.3c0-0.1,0-0.2,0-0.4l-8.7,8.7c0,0.5,0.1,1,0.1,1.5c0,0.2,0,0.5,0,0.7l8.8-8.8
				C58.7,27.5,58.6,26.9,58.6,26.3z"/>
			<path class="st22" d="M34.4,50c0.3,0.5,0.6,1,0.9,1.5l1.9-1.9l4.6-4.6c-0.2-0.5-0.4-1.1-0.5-1.8L36,48.4L34.4,50z"/>
			<path class="st22" d="M59.1,32.5c0-0.8-0.1-1.5-0.1-2.3L50,39.2c0,0.9,0,1.7,0,2.4l0.9-0.9L59.1,32.5z"/>
			<path class="st22" d="M72,17.2l-8.3,8.3c0,0.6,0.1,1.3,0.2,2.2l9-9C72.6,18,72.4,17.4,72,17.2z"/>
			<path class="st22" d="M28.2,63.3C28.1,62.7,28,62,28,61.2l-0.8,0.8L15.8,73.4L15,74.2c0,0.8,0.1,1.5,0.2,2.2l1.9-1.9L28.2,63.3z"
				/>
			<path class="st22" d="M36.3,52.9c0.3,0.4,0.6,0.7,1,1c0.1,0.1,0.1,0.1,0.2,0.2l2.1-2.1l4.3-4.3c-0.4-0.3-0.9-0.7-1.2-1.2
				l-4.3,4.3L36.3,52.9z"/>
			<path class="st22" d="M38.8,55.1c0.5,0.3,1,0.6,1.5,0.9l1.6-1.6l11.3-11.3l5.8-5.8c0-0.8,0.1-1.6,0.1-2.4l-7,7l-2.4,2.4
				c-0.1,0.6-0.3,1.1-0.5,1.6c-0.6,1.4-1.8,2.4-3.2,2.5c-0.1,0-0.2,0-0.4,0l-4.9,4.9L38.8,55.1z"/>
			<path class="st22" d="M73.1,23.2c0-0.1,0-0.2,0-0.3c0-0.7-0.1-1.3-0.1-1.9l-9,9c0.1,0.7,0.2,1.4,0.2,2.1l0.3-0.3L73.1,23.2z"/>
			<path class="st22" d="M28.9,67.4c-0.1-0.6-0.2-1.2-0.4-2L18.2,75.8l-2.8,2.8c0,0.2,0.1,0.5,0.1,0.7c0.1,0.5,0.1,0.9,0.2,1.4
				l3.7-3.7L28.9,67.4z"/>
			<path class="st22" d="M43.2,55.5l-1.1,1.1c0.7,0.2,1.4,0.3,2,0.3l0.2-0.2l11.3-11.3l2.8-2.8c0.1-0.8,0.3-1.7,0.4-2.7
				c0,0,0,0,0-0.1l-4.4,4.4L43.2,55.5z"/>
			<path class="st22" d="M84.2,14.5c-0.5,1.1-1.1,2.5-1.7,4.1l7-7l2.7-2.7c-0.3,0-0.5-0.1-0.8-0.1c-0.6,0-1.1,0-1.6,0.1l-1.5,1.5
				L84.2,14.5z"/>
			<path class="st22" d="M33.1,68l0.8-0.8c-2,0.9-3.5,1.6-4.3,1.9l-9,9L16,82.7c0.1,0.7,0.2,1.4,0.4,2l5.4-5.4L33.1,68z"/>
			<path class="st22" d="M73.2,27.9c0-0.8-0.1-1.6-0.1-2.3L65.7,33l-1.2,1.2c0.1,0.7,0.2,1.4,0.3,2.1l2.1-2.1L73.2,27.9z"/>
			<path class="st22" d="M35.4,70.4l6.6-6.6c-1.3,0.5-2.7,1.1-4,1.7l-3.8,3.8L22.9,80.5l-6.2,6.2c0.2,0.7,0.3,1.3,0.5,1.9l6.9-6.9
				L35.4,70.4z"/>
			<path class="st22" d="M81.1,22.4c-0.4,1.1-0.8,2.4-1.3,3.7l0.8-0.8L91.9,14l3.6-3.6c-0.2-0.4-0.7-0.8-1.3-1.1l-3.5,3.5L81.1,22.4
				z"/>
			<path class="st22" d="M46.6,56.8c0.2,0,0.5-0.1,0.7-0.1c1-0.2,1.9-0.5,2.7-0.9l6.1-6.1c0.6-1.1,1.1-2.4,1.6-3.9l-0.9,0.9
				L46.6,56.8z"/>
			<path class="st22" d="M73.5,32.3c-0.1-0.8-0.1-1.5-0.2-2.2l-5.2,5.2l-2.9,2.9c0.1,0.6,0.3,1.3,0.4,2l3.7-3.7L73.5,32.3z"/>
			<path class="st22" d="M37.8,72.8l11.3-11.3l0.5-0.5c-1,0.3-2,0.7-3.2,1.1c-0.2,0.1-0.3,0.1-0.5,0.2l-9.3,9.3L25.3,82.9l-7.5,7.5
				c0.2,0.4,0.4,0.7,0.6,0.9c0.3,0,0.7-0.1,1.1-0.2l6.9-6.9L37.8,72.8z"/>
			<path class="st22" d="M73.9,36.7c-0.1-0.7-0.2-1.5-0.2-2.1l-3.2,3.2L66,42.2c0.1,0.6,0.3,1.3,0.4,1.9l5.2-5.2L73.9,36.7z"/>
			<path class="st22" d="M81.8,26.4l-3.1,3.1c-0.3,1.1-0.6,2.2-0.8,3.2l5.1-5.1l9.8-9.8c0.8-1.9,1.5-3.4,2-4.4l-1.7,1.7L81.8,26.4z"
				/>
			<path class="st22" d="M74.5,40.9c-0.1-0.7-0.2-1.4-0.3-2.1l-1.3,1.3L66.9,46c0.2,0.6,0.3,1.3,0.5,1.9l6.6-6.6L74.5,40.9z"/>
			<path class="st22" d="M51.5,63.9l3.9-3.9c-0.8,0-1.7,0.1-2.6,0.2l-2.5,2.5L39,74L27.7,85.3l-0.9,0.9c0.8-0.6,1.6-1.3,2.4-2
				c2.5-2,5.1-4,7.8-5.9l3.2-3.2L51.5,63.9z"/>
			<path class="st22" d="M77.2,35.8c-0.2,1-0.4,2-0.6,3l8.8-8.8l4.2-4.2c0.5-1.4,1-2.7,1.5-3.9l-6.9,6.9L77.2,35.8z"/>
			<path class="st22" d="M76.1,41.6c-0.2,1.2-0.4,2.1-0.5,2.9l0.9-0.9l10.5-10.5c0.4-1.3,0.9-2.5,1.3-3.7l-1.6,1.6L76.1,41.6z"/>
			<path class="st22" d="M59.4,60.7c-0.6-0.2-1.3-0.4-1.9-0.5l-4.9,4.9l-9.3,9.3c1.6-0.9,3.1-1.6,4.6-2.2l5.9-5.9L59.4,60.7z"/>
			<path class="st22" d="M97.7,20c0,0.1-0.1,0.1-0.1,0.2c-0.3,0.9-0.3,1.7-0.3,2.5l1.7-1.7l5.7-5.7c-0.8-0.2-1.6-0.2-2.4,0l-4.6,4.6
				L97.7,20z"/>
			<path class="st22" d="M74.8,42.9L68,49.8c0.2,0.6,0.4,1.2,0.6,1.8l6.6-6.6C75,44.3,74.9,43.6,74.8,42.9z"/>
			<path class="st22" d="M57.4,19.9c-0.1-0.3-0.2-0.6-0.2-0.8c-0.1-0.2-0.4-0.4-0.7-0.6l-2.6,2.6L48.9,26c0.1,0.7,0.2,1.4,0.3,2.1
				l5.8-5.8L57.4,19.9z"/>
			<path class="st22" d="M27,50.3c0-0.8-0.1-1.5-0.1-2.3L20,55l-5.4,5.4c0,0.8,0,1.6,0,2.4l6.6-6.6L27,50.3z"/>
			<path class="st22" d="M32.5,43.6c0,0.3,0.1,0.7,0.2,1l8-8c0-0.8,0-1.6,0.1-2.5l-8.4,8.4C32.4,42.9,32.4,43.3,32.5,43.6z"/>
			<path class="st22" d="M33.1,46.6c0.2,0.6,0.4,1.2,0.6,1.8l1.1-1.1l6.1-6.1c-0.1-0.7-0.2-1.4-0.2-2.2L33.6,46L33.1,46.6z"/>
			<path class="st22" d="M58.2,23.8c-0.1-0.7-0.2-1.4-0.4-2l-1.6,1.6l-6.8,6.8c0.1,0.7,0.1,1.4,0.2,2.2l7.8-7.8L58.2,23.8z"/>
			<path class="st22" d="M27.3,54.8c-0.1-0.7-0.1-1.5-0.2-2.2l-4.8,4.8L14.6,65c0,0.8,0,1.6,0,2.3l8.9-8.9L27.3,54.8z"/>
			<path class="st22" d="M32.7,32.7c-0.1,0.8-0.2,1.7-0.3,2.6l6.6-6.6l2.8-2.8c0.2-1.2,0.4-2.2,0.6-3l-4.6,4.6L32.7,32.7z"/>
			<path class="st22" d="M26.9,40.9c0-0.8,0-1.6,0.1-2.5l-0.5,0.5L15.2,50.2l-0.4,0.4c0,0.8-0.1,1.6-0.1,2.4l1.7-1.7L26.9,40.9z"/>
			<path class="st22" d="M50.6,17.2c-1.1,0-2.4,0.1-2.6,0.6c-0.1,0.3-0.1,0.9,0,1.9l2.3-2.3L50.6,17.2z"/>
			<path class="st22" d="M26.9,45.7c0-0.8,0-1.6,0-2.4l-9.3,9.3l-2.9,2.9c0,0.8,0,1.6,0,2.4l4.2-4.2L26.9,45.7z"/>
			<path class="st22" d="M54.8,17.8c-0.6-0.2-1.3-0.3-2-0.4l-1.3,1.3l-3.1,3.1c0.1,0.5,0.2,1.2,0.3,2.1l4-4L54.8,17.8z"/>
			<path class="st22" d="M32.3,37.9c0,0.8,0,1.6,0,2.4l8.7-8.7c0.1-0.9,0.2-1.8,0.4-2.7L40.2,30L32.3,37.9z"/>
			<path class="st22" d="M28.1,25.5c0.1-1,0.3-1.9,0.4-2.8l-9.1,9.1l-3.6,3.6c-0.1,0.9-0.2,1.7-0.3,2.6l5-5L28.1,25.5z"/>
			<path class="st22" d="M27.5,30.8c0.1-0.9,0.2-1.8,0.3-2.6l-6,6l-6.4,6.4c-0.1,0.8-0.1,1.7-0.2,2.6l7.8-7.8L27.5,30.8z"/>
		</g>
		<g>
			<path class="st23" d="M138.7,56.4c-1.2,0.8-2.2,1.7-3.1,2.6c-3.7,3.8-6.5,9.3-4.6,13.4c1.1,2.3,3.9,3.6,6,3.4
				c1.8-0.1,3.3-1.3,3.7-2.7c0.3-1.2-0.4-3.4-1.8-3.4c1.1,3-1.7,4.3-3.3,3.4c-2.8-1.6-2.7-5.6,1.2-9.8c0.9-1,1.9-1.9,3-2.8"/>
			<path class="st23" d="M86,11c0.8-0.8,2.5-2.3,5.4-2.2s4.8,1.3,4,3.2c-0.3,0.7-3.1,6-6.2,14.7c-2.4,6.6-5.5,15.7-7.2,21.9
				c-1.3,4.9-2.2,10.6-2.8,12.8c-0.7,2.6-1.3,3.2-2.8,3.4c-1.6,0.2-3.2-1.9-6-8c-2.3-4.9-4.5-14.4-5.5-19.9
				c-0.9-5.3-1.3-10.5-1.4-12.2c0-1.2,0.1-2.4,0.5-3.1c0.8-1.3,6.1-4.5,7.6-4.4c1.2,0.1,1.2,2.6,1.4,5.7c0.1,3.3-0.1,9.9,2.2,22.9
				c0.6-2,1.6-10.9,4.3-19.2C82.8,17.2,85.4,11.6,86,11z"/>
			<path class="st23" d="M88.3,60.8c-0.8-3.4-0.8-9.3,0.1-13.7c1.4-7.2,3.3-11.3,4-12.5c0.8-1.5,1.9-2.4,3.2-2.3
				c1.4,0,3.3,1.2,4.5,2.3c0.8,0.7,0.9,1.7,0.5,2.8c-0.2,0.5-0.9,2-1.9,4.2c-2.1,4.3-3.6,8.7-4.4,13.9c-0.9,5.9-0.8,9.3-0.7,10.7
				c0.1,1.4-0.4,2.2-1.4,2C90.7,67.8,89.2,64.5,88.3,60.8z"/>
			<path class="st23" d="M105.4,15.5c-3.1-1.1-6.5,0.7-7.8,4.7c-1,3.4,0.7,6.6,2.9,7.2c2.4,0.7,5.8-0.5,7.3-4.2
				C109.4,19.4,107.6,16.4,105.4,15.5z"/>
			<path class="st23" d="M122.6,10.8c3.4-2.1,9-3.5,12.1,0.1c5.3,6.1,2.8,15.9-1,23c-3.8,7.1-7.9,9.4-10.8,10.7
				c0,7.1,1,16.3,1.9,23.2c0.4,3.1,1.1,6.2,0.7,7.1c-0.3,1-2.6,2.9-4.6,4c-2.4,1.3-4,1.6-5.3-3.3c-1.1-4.3-2.3-15.6-2.8-27.9
				c-0.3-7.3,0.2-17.5,0.3-19.7c0.1-2.5,0.8-9.2,1.3-10.6C115.1,16,118.9,13.1,122.6,10.8z M123,22c-0.3,2.5-0.6,9-0.4,12.8
				c1-0.5,4.3-3.2,6-7.1c2.4-5.6,1.3-9.8-1.1-9.3C125.5,18.7,123.8,20.7,123,22z"/>
			<path class="st23" d="M183.8,14c3.1-1.1,7-1.7,8.8,0.9c2.1,3.2,0.9,11.1-3.3,17.4c-4.2,6.3-8.4,9.4-11.1,10.8
				c-0.5,3.4-0.5,7.6-0.5,10.6c0,2.9,0.6,8.3,0.2,9.1c-0.6,1.2-2.2,1.9-3.9,2c-2.6,0.3-3.7-0.2-4.3-4.4c-0.6-4-0.7-11.1-0.5-18
				c0.2-6.9,1-11.9,1.3-14c0.3-1.9,0.8-4.8,1.3-6.1c0.7-1.7,3.2-3.5,4.3-4.4C177.6,17,181.4,14.9,183.8,14z M179.8,24.4
				c-0.5,2.1-1.1,6.6-1.3,9.8c1-0.5,4.1-3.2,5.9-6.4c2.2-3.9,2.7-7.3,0.4-6.8C182.7,21.5,180.7,23.4,179.8,24.4z"/>
			<path class="st23" d="M200.5,60.5c-0.4-3.1-2.1-5.2-3.7-6.6c-1.6-1.4-3.2-2.6-4.1-4c-0.4-0.6-0.7-1.4-0.2-2
				c0.3-0.4,1.1-0.5,1.4-0.1c0.4,0.5,0.8,1.2,1.2,2c0.4,0.8,1.1,1.6,2.1,1.4c0.7-0.1,1.2-0.4,1.6-0.7c0.4-0.4,1-1.1,1.2-1.8
				c0.1-0.7-0.1-2.1-0.9-4.2c-0.7-1.7-1.8-3.4-4.2-4.1c-1.6-0.5-3.1-0.4-4.7,0.7c-1.7,1.1-3,3-3.7,4.8c-0.7,2-0.9,4.5-0.1,6.5
				c1.1,2.6,3.9,4.8,5.2,6.5c1.1,1.4,1.3,2.7,0.3,3.5c-1,0.9-2.2,0.5-3.1-1c-1-1.5-1.4-3.6-2.5-3.7c-1-0.1-3.3,1.2-3.9,2.4
				c-0.5,1.4-0.5,6.9,1.3,9.5c1.7,2.5,4.5,3.9,7.3,3.6c2.6-0.2,5.3-1.8,7.1-4.2C199.6,67.2,200.9,63.4,200.5,60.5z"/>
			<path class="st23" d="M29.3,14.6c0.3,0.6-0.2,4.1-0.8,8.1c-1.2,7.7-2,18.3-1.4,28.3c0.7,11.2,2.1,17.7,2.3,18.3
				c1.6-0.8,11.4-5.1,17.1-7.2c8.5-3.2,12.1-2.9,19,1.7c6.3,4.2,16.5,11,24.1,10.6c7.7-0.5,13.3-6.1,14.8-10
				c1.3-3.4,0.5-6.9-1.5-7.3s-2.7,1.8-2.7,2.8c-0.2,0.1-1-1.8-0.3-3.4c0.7-1.8,3.2-3,5.3-2.1c2.2,0.9,3.9,4,3.8,8.1
				c-0.1,3.6-1.3,7.9-6.1,12.7c-7.6,7.6-18.8,8-27.4,4.3c-8.5-3.6-14.6-9.4-21.1-9c-7.4,0.5-17.1,7.2-25,13.7c-4.9,4-9.2,7.2-10.8,7
				c-1-0.8-2-5.4-3-12c-1-6.3-1-21.6-0.5-32.4c0.7-14.6,2.7-24.2,3.4-25.8C19.7,19.3,28.3,13.6,29.3,14.6z"/>
			<path class="st23" d="M58.8,40c0.5-5,0.2-9.7-0.3-13.7c-0.4-3.4-1.1-6.3-1.4-7.2c-0.2-0.4-1-0.8-1.8-1.1c-1-0.4-3.1-0.7-4.4-0.7
				c-1.1,0-2.8,0-3,0.6c-0.2,0.4-0.1,1.4,0.2,3.1c0.3,1.5,1.3,8.6,1.7,15.2c0.3,5.4,0.1,7.9-0.7,9.7c-0.6,1.4-1.8,2.4-3.2,2.5
				c-1.2,0.1-2.8-0.7-3.8-2.5c-1.3-2.3-1.8-7.4-1.3-13.1c0.5-5.5,1.9-11.2,2-11.7c0.1-0.5,0-1.4-1-1.1c-1.5,0.5-5.9,2.6-7.4,4.5
				c-0.4,0.8-1.2,3.9-1.6,7.2c-0.4,3.6-0.9,8-0.4,12c0.4,3.4,2.1,7.6,4.8,10.2c3.3,3.1,6.9,3.5,10.1,2.8c3.3-0.7,6-2.7,7.6-5
				C56.7,49.1,58.2,45.7,58.8,40z"/>
			<path class="st23" d="M149.4,55.5c1-0.1,2,0,2.8,0.3c0.3,0.1,0.6,0.3,0.9,0.5c1.9,1.2,3.7,3.4,5.7,5.9c2.6,3.4,5.4,7.5,8.5,10.9
				c6.8,7.5,15.1,11.9,22.7,11.4c10.6-0.7,18.7-6.7,24.1-12.7c6.6-7.4,15.1-20.1,18.8-33c5.4-19.1-1-28.9-8.6-28.6
				c-7.4,0.3-12.9,8.9-9.9,16.8c-0.3-0.3-1.8-4.7-6.7-6c-4.6-1.2-9.7,2.9-9,9.7c0.5,4.5,3.2,7.7,5.6,11.8c3.8,6.5,5.4,13.4,3.9,21
				c-1.7,8.4-9.7,15-17.3,15.3c-5.4,0.2-12.1-1.5-19.8-8.5c-3.2-2.9-6.8-8.1-10.1-12.3c-0.9-1.1-1.8-2.2-2.6-3.1
				c-0.9-1-2-1.8-3.1-2.3c-2-1-4.2-1.2-6.6-0.8"/>
			<path class="st23" d="M148.5,50.2c0,0.9,0.1,1.8,0.1,2.4c0.4,3.5,1.6,4.1,2.7,4.2"/>
			<path class="st23" d="M158.2,55.1c0.8,0.9,1.7,2,2.6,3.1c1-2.5,1.7-5.3,2.3-8.2c1.4-6.6,1.7-17,1.5-20.5c-0.2-4.6-0.6-5.7-2-5.7
				c-1.4,0-3.9,0.7-4.5,1.2c-0.8,0.6-1,2.3-0.9,4.6c0,2.5,0.2,6.7-0.3,11.5c-0.3,2.8-0.8,8.1-1.8,11.6l0,0
				C156.2,53.3,157.3,54.1,158.2,55.1z"/>
			<path class="st23" d="M153.1,56.3c-0.5,0.4-1.1,0.6-1.8,0.5c-1.1-0.1-2.3-0.8-2.7-4.2c0-0.2,0-0.4-0.1-0.6h0h0
				c-0.3-3.3,0.1-9.7,0.7-14c0.7-4.5,1.7-8.1,2.3-10.3c1.1-4.1,2.1-7.3,2.2-7.8c0.1-0.5,0-1-0.3-1.4c-0.3-0.4-0.8-0.7-1.5-1
				c-1-0.4-2.6-1.1-4.1-1.1c-1.5-0.1-2.3,0.6-2.8,1.7c-0.5,1.1-3.5,9-5,15.9c-1.5,6.6-2.2,17.5-1.5,22c0.7,5.2,3.5,9.8,9,11
				c4.3,0.9,8.3-0.9,10.8-4.3c0.1-0.1,0.2-0.3,0.3-0.4l0,0C156.8,59.7,155,57.5,153.1,56.3z"/>
		</g>
	</g>
</g>
</svg>
